<?xml version="1.0" encoding="UTF-8"?>
<svg width="24px" height="24px" viewBox="0 0 24 24" version="1.1" xmlns="http://www.w3.org/2000/svg" xmlns:xlink="http://www.w3.org/1999/xlink">
    <!-- Generator: Sketch 58 (84663) - https://sketch.com -->
    <title>Combined Shape</title>
    <desc>Created with Sketch.</desc>
    <g id="Page-1" stroke="none" stroke-width="1" fill="none" fill-rule="evenodd">
        <g transform="translate(-356.000000, -55.000000)" fill="#333333" id="Combined-Shape">
            <path d="M378.484029,59.6312839 C378.900456,59.6312839 379.247117,59.9790328 379.247117,60.3943723 C379.247117,60.8108002 378.900456,61.1574607 378.484029,61.1574607 L378.484029,61.1574607 L377.351177,61.1572979 L377.350419,76.6009584 C377.350419,77.8054898 376.427335,78.7907573 375.245124,78.8707717 L375.089508,78.8760183 L360.816484,78.8760183 C359.612996,78.8760183 358.615751,77.9399399 358.534737,76.7566464 L358.529424,76.6009584 L358.529177,61.1572979 L357.391266,61.1574607 C357.00954,61.1574607 356.686439,60.8661696 356.635239,60.4968656 L356.628177,60.3943723 C356.628177,59.9779444 356.974838,59.6312839 357.391266,59.6312839 L357.391266,59.6312839 Z M367.966668,63.6666858 C367.573968,63.6666858 367.249037,63.958868 367.197609,64.3375636 L367.190519,64.4428346 L367.190519,74.864416 C367.190519,75.0791881 367.277728,75.2732225 367.418354,75.4138486 C367.559005,75.5544746 367.753034,75.6416839 367.967787,75.6416839 C368.360487,75.6416839 368.685417,75.3495018 368.736845,74.9708062 L368.743936,74.8655351 L368.743936,64.4439537 C368.743936,64.2291816 368.656751,64.0351472 368.5161,63.8945211 C368.375449,63.7538951 368.18142,63.6666858 367.966668,63.6666858 Z M363.438203,65.289923 C363.045503,65.289923 362.720572,65.5821052 362.669144,65.9608008 L362.662054,66.0660718 L362.662054,73.2412346 C362.662054,73.4560067 362.749263,73.6500411 362.889889,73.7906672 C363.03054,73.9312932 363.224569,74.0185025 363.439322,74.0185025 C363.832022,74.0185025 364.156952,73.7263204 364.20838,73.3476248 L364.21547,73.2423537 L364.21547,66.0671909 C364.21547,65.8524188 364.128286,65.6583844 363.987635,65.5177584 C363.846984,65.3771323 363.652955,65.289923 363.438203,65.289923 Z M372.468875,65.289923 C372.076175,65.289923 371.751244,65.5821052 371.699816,65.9608008 L371.692726,66.0660718 L371.691635,73.2412346 C371.691635,73.4560067 371.778844,73.6500411 371.91947,73.7906672 C372.060122,73.9312932 372.25415,74.0185025 372.468903,74.0185025 C372.861603,74.0185025 373.186534,73.7263204 373.237962,73.3476248 L373.245052,73.2423537 L373.246143,66.0671909 C373.246143,65.8524188 373.158934,65.6583844 373.018308,65.5177584 C372.877656,65.3771323 372.683628,65.289923 372.468875,65.289923 Z M370.371275,55.1462979 C371.627089,55.1462979 372.651805,56.1666328 372.651805,57.4224467 L372.651805,58.3893677 L363.222261,58.3893677 L363.222261,57.4224467 C363.222261,56.1666328 364.252419,55.1462979 365.509322,55.1462979 L370.371275,55.1462979 Z"></path>
        </g>
    </g>
</svg>