<?xml version="1.0" encoding="UTF-8"?>
<svg width="19px" height="20px" viewBox="0 0 19 20" version="1.1" xmlns="http://www.w3.org/2000/svg" xmlns:xlink="http://www.w3.org/1999/xlink">
    <!-- Generator: Sketch 52.6 (67491) - http://www.bohemiancoding.com/sketch -->
    <title>3d</title>
    <desc>Created with Sketch.</desc>
    <g id="Page-1" stroke="none" stroke-width="1" fill="none" fill-rule="evenodd">
        <g transform="translate(-339.000000, -108.000000)" fill="#009CFF" id="3d">
            <g transform="translate(339.000000, 108.000000)">
                <path d="M14.6397236,6.03535363 C14.304538,5.91945383 13.953412,5.81491887 13.5864037,5.72402054 C13.4932307,5.35701227 13.3886928,5.00588626 13.2750706,4.67410403 C12.4297037,2.23568209 10.9957331,0.69161193 9.30828626,0.69161193 C7.38571791,0.69161193 5.80051676,2.68463237 5.02909254,5.71517767 C1.99866359,6.48898714 -4.61852778e-14,8.07974418 -4.61852778e-14,9.99989819 C-4.61852778e-14,11.6895267 1.53851428,13.1210829 3.96998409,13.9678461 C4.30516966,14.0837459 4.65629567,14.1882809 5.02330395,14.2791792 C5.11647698,14.6461875 5.22101485,14.9973135 5.33463703,15.3290957 C6.18457083,17.7663832 7.61510899,19.3083881 9.30811173,19.3083881 C11.2306801,19.3083881 12.819081,17.3222034 13.5873055,14.2871494 C16.6177344,13.511071 18.616398,11.9225829 18.616398,10.0001018 C18.616398,8.31274222 17.0722115,6.87891707 14.6394327,6.03564451 L14.6397236,6.03535363 Z M4.65425948,12.155261 C2.90895581,11.5734931 1.94086495,10.7008412 1.94086495,10.0031852 C1.94086495,9.30439468 2.90895581,8.43741508 4.65425948,7.84427362 C4.49518087,9.27710976 4.49518087,10.7224248 4.65425948,12.1551737 L4.65425948,12.155261 Z M9.30840261,2.62532114 C10.0094911,2.62532114 10.8707694,3.60592 11.4673142,5.33871567 L11.4673142,5.33985012 C10.034478,5.17963706 8.58802852,5.17963706 7.1564141,5.33985012 C7.74385422,3.60021868 8.60743048,2.62532114 9.30848988,2.62532114 L9.30840261,2.62532114 Z M9.30840261,17.3705192 C8.61074656,17.3705192 7.74603585,16.3933237 7.15632683,14.6627969 C7.87102869,14.7423362 8.58916297,14.7821059 9.30840261,14.7821059 C10.0288058,14.7786967 10.7480454,14.7366553 11.4639108,14.6537068 C10.8707694,16.3990105 10.0094911,17.3739371 9.30840261,17.3739371 L9.30840261,17.3705192 Z M11.9559119,12.6436551 C11.0798568,12.7856879 10.1946969,12.8549997 9.30840261,12.8527279 C8.81072927,12.8527279 8.33690841,12.8300012 7.88353669,12.7913689 C7.43016498,12.753871 7.0483798,12.707286 6.66432573,12.6459269 C6.60296667,12.2596039 6.55410689,11.8550716 6.51888375,11.4301193 C6.48366062,11.0051669 6.46093385,10.4995234 6.46093385,10.0018209 L6.46093385,10.0029583 C6.45866205,9.116664 6.52683652,8.23153324 6.66432573,7.35544897 C7.53924646,7.21682532 8.42327186,7.14751349 9.30840261,7.14864794 C9.80837394,7.14864794 10.2798968,7.17137179 10.736701,7.210007 C11.193476,7.24750485 11.5718579,7.29181811 11.9559119,7.35203981 C12.017271,7.73836278 12.0661308,8.14629842 12.1013539,8.57125078 C12.136577,8.99620314 12.1593038,9.5018467 12.1593038,9.99954913 C12.1604412,10.884709 12.0911264,11.7687053 11.9525028,12.643626 L11.9559119,12.6436551 Z M13.9625457,12.1550573 C14.0420851,11.4403555 14.0818547,10.7210868 14.0818547,10.0029816 C14.0818547,9.28144393 14.0420851,8.56106984 13.9625457,7.84407 C15.7078494,8.4258379 16.6759403,9.29848973 16.6759403,10.0029816 C16.6759403,10.7063389 15.7078494,11.5642139 13.9625457,12.1550573 Z" id="icon"></path>
            </g>
        </g>
    </g>
</svg>