<?xml version="1.0" encoding="UTF-8"?>
<svg width="18px" height="22px" viewBox="0 0 18 22" version="1.1" xmlns="http://www.w3.org/2000/svg" xmlns:xlink="http://www.w3.org/1999/xlink">
    <!-- Generator: Sketch 58 (84663) - https://sketch.com -->
    <title>download</title>
    <desc>Created with Sketch.</desc>
    <g id="Page-1" stroke="none" stroke-width="1" fill="none" fill-rule="evenodd">
        <g transform="translate(-229.000000, -576.000000)" fill="#009CFF" id="download">
            <g transform="translate(229.069824, 576.455803)">
                <path d="M16.1388158,18.27735 C16.8902168,18.27735 17.4997208,19.028751 17.4997208,19.638255 C17.4997208,20.389656 16.8902378,20.99916 16.1388158,20.99916 L1.36090584,20.99916 C0.60950484,20.99916 7.10542736e-15,20.247759 7.10542736e-15,19.638255 C7.10542736e-15,18.886854 0.60948384,18.27735 1.36090584,18.27735 L16.1388158,18.27735 Z M8.75017584,6.92779167e-14 C9.93142584,6.92779167e-14 10.8888158,0.957306 10.8888158,2.13864 L10.888,7.971 L14.5973738,7.971789 C15.2429558,7.971789 15.4332788,8.37375 15.0198308,8.8725 L9.41052084,15.64332 C8.99791284,16.141251 8.33099484,16.142889 7.91672784,15.64332 L2.30821584,8.8725 C1.89560784,8.374569 2.08345284,7.971789 2.72985384,7.971789 L6.611,7.971 L6.61153584,2.13864 C6.61153584,0.95739 7.79278584,6.92779167e-14 8.75017584,6.92779167e-14 Z" id="icon"></path>
            </g>
        </g>
    </g>
</svg>