<?xml version="1.0" encoding="UTF-8"?>
<svg width="25px" height="25px" viewBox="0 0 25 25" version="1.1" xmlns="http://www.w3.org/2000/svg" xmlns:xlink="http://www.w3.org/1999/xlink">
    <!-- Generator: Sketch 58 (84663) - https://sketch.com -->
    <title>icon</title>
    <desc>Created with Sketch.</desc>
    <g id="Page-1" stroke="none" stroke-width="1" fill="none" fill-rule="evenodd">
        <g transform="translate(-284.000000, -107.000000)" fill="#009CFF" id="icon">
            <path d="M307.53125,110.401025 L309,111.869775 L304.458,116.421525 C304.706048,117.41665 304.832023,118.438125 304.833,119.463525 L304.833,119.463525 L304.83295,119.46355 L304.83295,120.50555 L309,120.50555 L309,122.58855 L304.4482,122.58855 C304.12985,123.8903 303.582975,125.124675 302.832975,126.23405 L302.832975,126.23405 L307.093725,130.4948 L305.624975,131.96355 L301.457975,127.79655 C300.381725,128.83755 299.016575,129.52995 297.541975,129.786775 L297.541975,129.786775 L297.540998,118.421525 L295.457998,118.421525 L295.457998,129.786775 C294.015623,129.5358 292.678698,128.865875 291.614248,127.85905 L291.615,127.859 L287.510725,131.96355 L286.083,130.485025 L290.25,126.318025 C289.460925,125.188025 288.885725,123.924475 288.55175,122.588525 L288.55175,122.588525 L284,122.588525 L284,120.505525 L288.167,120.505525 L288.167,119.463525 C288.167975,118.438125 288.293953,117.41665 288.542,116.421525 L288.542,116.421525 L284,111.869775 L285.46875,110.401025 L289.32325,114.255525 L303.67675,114.255525 L307.53125,110.401025 Z M293.6935,107.665775 C295.459,106.778075 297.541125,106.778075 299.30675,107.665775 C301.07325,108.554275 302.315425,110.225225 302.65625,112.171525 L302.65625,112.171525 L290.344,112.171525 C290.68475,110.225275 291.9269,108.55445 293.6935,107.665775 Z"></path>
        </g>
    </g>
</svg>