<?xml version="1.0" encoding="UTF-8"?>
<svg width="29px" height="24px" viewBox="0 0 29 24" version="1.1" xmlns="http://www.w3.org/2000/svg" xmlns:xlink="http://www.w3.org/1999/xlink">
    <!-- Generator: Sketch 58 (84663) - https://sketch.com -->
    <title>db</title>
    <desc>Created with Sketch.</desc>
    <g id="Page-1" stroke="none" stroke-width="1" fill="none" fill-rule="evenodd">
        <g transform="translate(-155.000000, -419.000000)" fill="#1C9CFC" id="db">
            <g transform="translate(155.000000, 419.000000)">
                <path d="M18.9555423,11.73442 L13.539508,11.73442 L13.539508,14.4422446 L18.9555423,14.4422446 L18.9555423,11.73442 Z M19.8578937,9.92894686 L8.12385886,9.92894686 L8.12385886,20.7610154 L20.7606303,20.7610154 L20.7606303,9.92894686 L19.8578937,9.92894686 Z M18.9555423,18.9555423 L13.539508,18.9555423 L13.539508,16.2477177 L18.9555423,16.2477177 L18.9555423,18.9555423 Z M11.73442,11.73442 L9.92894686,11.73442 L9.92894686,14.4422446 L11.73442,14.4422446 L11.73442,11.73442 Z M11.73442,16.2477177 L9.92894686,16.2477177 L9.92894686,18.9555423 L11.73442,18.9555423 L11.73442,16.2477177 Z M28.8844892,7.22112229 L28.8844892,22.5661034 C28.8844892,23.46884 27.9817526,23.46884 27.9817526,23.46884 L0.902736568,23.46884 C0.902736568,23.46884 0,23.46884 0,22.5661034 L0,7.22112229 L28.8844892,7.22112229 Z M0.902736568,0 L8.57522714,0 C9.52880041,0 9.92894686,0.902736568 9.92894686,0.902736568 L10.8316834,2.70782458 L27.9817526,2.70782458 C27.9817526,2.70782458 28.8844892,2.70782458 28.8844892,3.61056114 L28.8844892,6.31877085 L0,6.31877085 L0,0.902736568 C0,0 0.902736568,0 0.902736568,0 L0.902736568,0 Z" id="icon"></path>
            </g>
        </g>
    </g>
</svg>