<?xml version="1.0" encoding="UTF-8"?>
<svg width="22px" height="22px" viewBox="0 0 22 22" version="1.1" xmlns="http://www.w3.org/2000/svg" xmlns:xlink="http://www.w3.org/1999/xlink">
    <!-- Generator: Sketch 52.5 (67469) - http://www.bohemiancoding.com/sketch -->
    <title>bluetooth</title>
    <desc>Created with Sketch.</desc>
    <g id="Page-1" stroke="none" stroke-width="1" fill="none" fill-rule="evenodd">
        <g transform="translate(-192.000000, -227.000000)" fill="#009CFF" id="bluetooth">
            <g transform="translate(192.000000, 227.000000)">
                <path d="M12.6288326,9.55890478 C12.806422,9.40298627 13.0723581,9.49220231 13.1165381,9.71396728 C13.2274206,10.2242041 13.2941231,10.7560852 13.2941231,11.3104976 C13.2941231,11.86491 13.2274206,12.3967911 13.1165381,12.9070279 C13.0723625,13.1287929 12.8064175,13.2171529 12.6288326,13.0620904 L11.2757115,11.8649145 C11.2098739,11.7982031 11.1873515,11.7089782 11.1873515,11.6206182 L11.1873515,11.310502 L11.1873515,11.0003859 C11.164829,10.9111521 11.209009,10.8227921 11.2757115,10.7560896 L12.6288326,9.55891365 Z M15.8229134,6.69748032 L15.8229134,6.69766217 C15.9779714,6.56512212 16.221394,6.60930213 16.3106189,6.78688708 C16.9092069,8.18334106 17.2418543,9.69140935 17.2409894,11.3113359 C17.2409894,12.9293331 16.908342,14.4601323 16.309754,15.8348976 C16.2430471,16.0116177 15.9987553,16.0566626 15.8436928,15.9232577 L14.6465168,14.8586084 C14.5356343,14.7702572 14.5139767,14.6368434 14.5581567,14.525961 C14.935858,13.5280186 15.1351005,12.4417251 15.1351005,11.310369 C15.1351005,10.1790128 14.9358668,9.09271934 14.5365125,8.094777 C14.51399,7.96137207 14.5365125,7.85048959 14.6248725,7.76212956 L15.8229134,6.69748032 Z M19.3485328,4.03630962 C20.5240645,6.20982803 21.1893594,8.67186266 21.1893594,11.3104222 C21.1893594,13.9500906 20.5240645,16.4335921 19.3485328,18.5845348 C19.2592946,18.7395973 19.0158765,18.7846422 18.8824715,18.6512373 L17.7294711,17.6091193 C17.6185886,17.5198811 17.5960662,17.3648231 17.6627687,17.2539406 C18.5714728,15.4798209 19.0817096,13.439805 19.0817096,11.3104178 C19.0817096,9.18103059 18.5723598,7.163546 17.6627687,5.36689497 C17.5960662,5.25601249 17.6185886,5.10007623 17.7294711,5.0117162 L18.8824715,3.96959828 C19.0384167,3.83705823 19.2601727,3.8587158 19.3485328,4.03630075 Z M7.50672723,11.3104133 L11.8752753,15.2818468 C12.0970491,15.4810805 12.230454,15.7695524 12.230454,16.0580242 C12.230454,16.3464961 12.0970402,16.6349591 11.8752753,16.8342016 L6.61966737,21.5795285 C6.42043373,21.757109 6.17613744,21.8454691 5.9101969,21.8454691 C5.77767015,21.8454691 5.62260322,21.8238115 5.48919829,21.757109 C5.11237526,21.602051 4.86807898,21.2243409 4.86807898,20.8033423 L4.86807898,13.6842432 L1.80750093,16.4336852 C1.56320464,16.6554457 1.18638162,16.6338015 0.964616652,16.3895052 L0.343497341,15.701679 C0.121736812,15.4573827 0.143381072,15.0805597 0.387677357,14.8587947 L4.3344282,11.3105553 L0.386790297,7.76231584 C0.143367767,7.54055088 0.120845317,7.16372785 0.342610281,6.91943156 L0.963729592,6.23160535 C1.18549456,5.98818282 1.56231758,5.96566037 1.80661387,6.18742534 L4.86719192,8.93775442 L4.86719192,1.81865554 C4.86719192,1.4193012 5.1114882,1.04247373 5.48831123,0.864888785 C5.86602131,0.687294966 6.30955124,0.754001867 6.61966737,1.04247373 L11.8978953,5.81042046 C12.1196691,6.00965411 12.253074,6.29812597 12.253074,6.58659784 C12.253074,6.8750697 12.1196602,7.1635327 11.8978953,7.36277521 L7.50672723,11.3104133 Z M6.97398125,4.19131446 L6.97398125,8.93752822 L9.6125408,6.56397781 L6.97398125,4.19131446 Z M6.97398125,18.4292905 L9.6125408,16.05574 L6.97398125,13.6830767 L6.97398125,18.4292905 Z" id="icon"></path>
            </g>
        </g>
    </g>
</svg>