<?xml version="1.0" encoding="UTF-8"?>
<svg width="25px" height="25px" viewBox="0 0 25 25" version="1.1" xmlns="http://www.w3.org/2000/svg" xmlns:xlink="http://www.w3.org/1999/xlink">
    <!-- Generator: Sketch 58 (84663) - https://sketch.com -->
    <title>Shape</title>
    <desc>Created with Sketch.</desc>
    <g id="Page-1" stroke="none" stroke-width="1" fill="none" fill-rule="evenodd">
        <g transform="translate(-417.000000, -108.000000)" fill="#333333" fill-rule="nonzero" id="Shape">
            <path d="M421.290236,112.065754 C425.976528,107.379463 433.574508,107.379463 438.260799,112.065754 C442.947091,116.752046 442.947091,124.350025 438.260799,129.036317 C433.574508,133.722608 425.976528,133.722608 421.290236,129.036317 C416.603945,124.350025 416.603945,116.752046 421.290236,112.065754 Z M436.624269,116.597494 L425.821976,127.399787 C428.845546,129.147733 432.779051,128.728279 435.365906,126.141423 C437.952761,123.554568 438.372215,119.621063 436.624269,116.597494 Z M424.18513,114.960647 C421.598275,117.547502 421.17882,121.481008 422.926766,124.504577 L433.729059,113.702284 C430.70549,111.954338 426.771985,112.373792 424.18513,114.960647 Z"></path>
        </g>
    </g>
</svg>