<?xml version="1.0" encoding="UTF-8"?>
<svg width="26px" height="25px" viewBox="0 0 26 25" version="1.1" xmlns="http://www.w3.org/2000/svg" xmlns:xlink="http://www.w3.org/1999/xlink">
    <!-- Generator: Sketch 58 (84663) - https://sketch.com -->
    <title>icon</title>
    <desc>Created with Sketch.</desc>
    <g id="Page-1" stroke="none" stroke-width="1" fill="none" fill-rule="evenodd">
        <g transform="translate(-382.000000, -105.000000)" fill="#009CFF" id="icon">
            <path d="M394.212633,105 C396.465931,105 398.298537,106.83359 398.298537,109.086968 C398.298537,110.21 399.211702,111.123191 400.334761,111.123191 C400.898883,111.123191 401.362234,111.581356 401.362234,112.146516 C401.362234,112.712713 400.909282,113.16984 400.344122,113.16984 C398.083431,113.16984 396.252899,111.338165 396.252899,109.087926 C396.252899,108.013935 395.418948,107.131166 394.36456,107.053133 L394.212719,107.047 L394.061107,107.053207 C393.056929,107.127444 392.252692,107.93086 392.178376,108.935816 L392.172769,109.088005 L392.171729,110.115479 L393.195053,110.115479 C393.722535,110.115479 394.156813,110.514591 394.212373,111.027302 L394.218378,111.138803 L394.218378,113.784867 C397.215479,114.999495 399.332739,117.934335 399.332739,121.367846 C399.332739,125.887261 395.668378,129.551356 391.149229,129.551356 C386.629814,129.551356 382.965719,125.886995 382.965719,121.367846 C382.965719,118.032435 384.962742,115.167456 387.825285,113.893149 L388.08008,113.784867 L388.08008,111.138803 C388.08008,110.611321 388.479192,110.177043 388.991903,110.121484 L389.103404,110.115479 L390.126729,110.115479 L390.126729,109.086968 C390.126729,106.832606 391.959255,105 394.212633,105 Z M403.721316,114.207303 L403.786941,114.30742 L404.810266,116.079787 C405.091809,116.569096 404.924521,117.194521 404.435213,117.477101 C403.980855,117.738533 403.410025,117.612965 403.103716,117.201925 L403.037899,117.102048 L402.014574,115.329681 C401.733032,114.840372 401.900319,114.214947 402.389628,113.932367 C402.843986,113.668045 403.41571,113.795173 403.721316,114.207303 Z M406.476676,111.139628 C407.041835,111.139628 407.5,111.597793 407.5,112.162952 C407.5,112.690434 407.100887,113.123807 406.588177,113.180091 L406.476676,113.186277 L404.43109,113.186277 C403.865931,113.186277 403.407766,112.728112 403.407766,112.162952 C403.407766,111.634502 403.806878,111.201063 404.319589,111.14562 L404.43109,111.139628 L406.476676,111.139628 Z M403.033803,107.226303 C403.316383,106.736971 403.93867,106.56867 404.431117,106.85125 C404.920449,107.13383 405.087713,107.759255 404.80617,108.248564 L404.80617,108.248564 L403.782846,110.020931 C403.500266,110.510263 402.87484,110.677527 402.385532,110.395984 C401.896199,110.113404 401.727899,109.487979 402.010479,108.99867 L402.010479,108.99867 Z"></path>
        </g>
    </g>
</svg>