<?xml version="1.0" encoding="UTF-8"?>
<svg width="186px" height="91px" viewBox="0 0 186 91" version="1.1" xmlns="http://www.w3.org/2000/svg" xmlns:xlink="http://www.w3.org/1999/xlink">
    <!-- Generator: Sketch 52.6 (67491) - http://www.bohemiancoding.com/sketch -->
    <title>sensor</title>
    <desc>Created with Sketch.</desc>
    <g id="Page-1" stroke="none" stroke-width="1" fill="none" fill-rule="evenodd">
        <g id="sensor" transform="translate(-0.112036, 0.324180)">
            <path d="M37.6445924,88.6988698 C20.0764672,91.7966043 3.65293798,81.9344962 0.961613194,66.6712348 C-0.824423209,56.5421191 3.88605301,46.5797978 12.3915871,40.1184155 L12.3915871,31.5369506 C12.3915871,12.451011 27.7777549,-1.3174264 46.8087013,0.393908581 C46.8087013,0.393908581 57.6598633,2.73529588 100.143524,2.73529588 C142.627185,2.73529588 150.814905,0.517918362 150.814905,0.517918362 C169.742567,-1.43668282 185.086468,12.394928 185.086468,31.5369506 L185.086468,54.5245856 C185.086468,73.6105253 169.775713,87.2613451 150.786976,85.494322 C150.786976,85.494322 144.007602,83.3262404 100.143524,83.3262404 C63.0505351,83.3262404 50.5148473,84.9709211 47.5285733,85.4786842 C44.5086702,86.9693298 41.1887138,88.0739456 37.6445924,88.6988698 Z" id="Path" stroke="#666666" stroke-width="0.85" fill="#EAEAEA"></path>
            <path d="M77.2683416,11.9515154 C77.2683416,11.9515154 74.6166125,9.11420645 73.4540027,9.07856732 C54.5928775,8.50039042 48.6442762,7.31076093 48.6442762,7.31076093 C32.9914371,5.91684776 20.3250468,16.9744595 20.3250468,32.3115511 L20.3250468,54.2986213 C20.3250468,69.6127333 32.9849994,80.8132197 48.6018424,79.2642815 C48.6018424,79.2642815 54.280151,78.0889092 73.4540027,77.5221245 C74.7245498,77.4845668 77.2683416,74.630175 77.2683416,74.630175 C77.2683416,74.630175 75.1727039,53.848722 75.1727039,43.2998346 C75.1727039,32.7509472 77.2683416,11.9515154 77.2683416,11.9515154 Z" id="Combined-Shape" fill-opacity="0.15" fill="#000000"></path>
            <path d="M147.749453,7.7878935 C150.238113,7.51138306 151.2413,7.31076093 151.2413,7.31076093 C166.894139,5.91684776 179.560529,16.9744595 179.560529,32.3115511 L179.560529,54.2986213 C179.560529,69.6127333 166.900577,80.8132197 151.283734,79.2642815 C151.283734,79.2642815 150.352598,79.0715427 147.971236,78.8045261 C159.375763,76.3524611 167.634058,66.6672341 167.634058,54.2986213 L167.634058,32.3115511 C167.634058,19.8532935 159.276461,10.2187426 147.749453,7.7878935 L147.749453,7.7878935 Z" id="Combined-Shape" fill-opacity="0.35" fill="#FFFFFF"></path>
            <path d="M94.7467799,11.9515154 C94.7467799,11.9515154 92.0950508,9.11420645 90.932441,9.07856732 C72.0713158,8.50039042 60.428385,7.31076093 60.428385,7.31076093 C44.7755459,5.91684776 32.1091556,16.9744595 32.1091556,32.3115511 L32.1091556,54.2986213 C32.1091556,69.6127333 44.7691082,80.8132197 60.3859512,79.2642815 C60.3859512,79.2642815 71.7585893,78.0889092 90.932441,77.5221245 C92.202988,77.4845668 94.7467799,74.630175 94.7467799,74.630175 L94.7467799,11.9515154 Z" id="Combined-Shape-Copy" fill-opacity="0.149999991" fill="#FFFFFF"></path>
            <g id="Group" transform="translate(90.684853, 55.661047)" fill="#303030">
                <path d="M2.73277827,11.9816588 L5.623948,11.9816588 C6.96739976,11.9816588 7.72067378,11.2082522 7.72067378,10.0480293 C7.72067378,8.90793886 6.96739976,8.13430609 5.623948,8.13430609 L2.73277827,8.13430609 C2.65156945,8.13430609 2.61062573,8.17479739 2.61062573,8.25645863 L2.61062573,11.8597324 C2.61062573,11.9411675 2.65156945,11.9816588 2.73277827,11.9816588 Z M5.50156925,6.01699534 C6.72309468,6.01699534 7.47636869,5.28408008 7.47636869,4.20506595 C7.47636869,3.10569306 6.72309468,2.37300401 5.50156925,2.37300401 L2.73277827,2.37300401 C2.65156945,2.37300401 2.61062573,2.41372153 2.61062573,2.49515656 L2.61062573,5.8948428 C2.61062573,5.97627783 2.65156945,6.01699534 2.73277827,6.01699534 L5.50156925,6.01699534 Z M0.208518587,0.459280838 C0.208518587,0.337128295 0.289953616,0.255693266 0.412106159,0.255693266 L5.56264552,0.255693266 C8.49430655,0.255693266 9.87847583,1.72152378 9.87847583,3.94062832 C9.87847583,5.50802641 9.14578678,6.40381173 8.27036022,6.87206314 L8.27036022,6.91278066 C9.12520182,7.23852077 10.1227809,8.33789366 10.1227809,10.0274443 C10.1227809,12.7758765 8.39251277,14.0991957 5.35928416,14.0991957 L0.412106159,14.0991957 C0.289953616,14.0991957 0.208518587,14.0175345 0.208518587,13.895382 L0.208518587,0.459280838 L0.208518587,0.459280838 Z" id="Fill-7"></path>
                <path d="M12.0324642,14.0991957 C11.9103116,14.0991957 11.8286504,14.0175345 11.8286504,13.895382 L11.8286504,4.49008855 C11.8286504,4.36793601 11.9103116,4.28650098 12.0324642,4.28650098 L13.9052436,4.28650098 C14.0273962,4.28650098 14.1088312,4.36793601 14.1088312,4.49008855 L14.1088312,13.895382 C14.1088312,14.0175345 14.0273962,14.0991957 13.9052436,14.0991957 L12.0324642,14.0991957" id="Fill-8"></path>
                <path d="M22.2336351,11.0046646 C22.3965052,10.4956957 22.4372227,10.0274443 22.4372227,9.19273525 C22.4372227,8.35825242 22.3965052,7.91013355 22.2336351,7.38103207 C21.9488388,6.56668179 21.3177173,6.09843037 20.4015732,6.09843037 C19.4854291,6.09843037 18.8339489,6.56668179 18.5487001,7.38103207 C18.3860562,7.91013355 18.3453387,8.35825242 18.3453387,9.19273525 C18.3453387,10.0274443 18.3860562,10.4956957 18.5487001,11.0046646 C18.8339489,11.8190149 19.4854291,12.2872663 20.4015732,12.2872663 C21.3177173,12.2872663 21.9488388,11.8190149 22.2336351,11.0046646 Z M16.3504067,11.6154274 C16.1262342,10.9232296 16.0244404,10.2717494 16.0244404,9.19273525 C16.0244404,8.11394733 16.1262342,7.4624671 16.3504067,6.77004315 C16.899867,5.06013375 18.4061888,4.06278086 20.4015732,4.06278086 C22.3761464,4.06278086 23.8824683,5.06013375 24.4323809,6.77004315 C24.656101,7.4624671 24.758121,8.11394733 24.758121,9.19273525 C24.758121,10.2717494 24.656101,10.9232296 24.4323809,11.6154274 C23.8824683,13.325563 22.3761464,14.3229159 20.4015732,14.3229159 C18.4061888,14.3229159 16.899867,13.325563 16.3504067,11.6154274 L16.3504067,11.6154274 Z" id="Fill-9"></path>
                <path d="M25.8305751,12.4906277 C25.7489139,12.4094189 25.7084226,12.2872663 25.7898576,12.1854726 L27.0518743,10.719642 C27.1333094,10.6178483 27.2556881,10.6178483 27.3368969,10.6992833 C28.2326823,11.4118398 29.5557753,12.1651138 31.1030408,12.1651138 C32.7521002,12.1651138 33.7089617,11.3304048 33.7089617,10.1701818 C33.7089617,9.1723765 33.0984252,8.52112248 31.1847021,8.25645863 L30.4515606,8.15443864 C27.7847896,7.78798101 26.2782416,6.50537931 26.2782416,4.20506595 C26.2782416,1.70116503 28.1105297,0.031746937 30.9605295,0.031746937 C32.6912501,0.031746937 34.3400832,0.581433381 35.4394561,1.41591622 C35.5410237,1.49757745 35.5616086,1.57901248 35.4801736,1.70116503 L34.5029533,3.20748685 C34.4215182,3.30950684 34.3197245,3.32963939 34.2179307,3.26878933 C33.0984252,2.53587407 32.0601286,2.18954899 30.8996795,2.18954899 C29.4949252,2.18954899 28.7212924,2.96318176 28.7212924,4.0424221 C28.7212924,4.99905748 29.3931314,5.65053771 31.2661371,5.91520156 L31.9988261,6.01699534 C34.6658233,6.38345297 36.1316538,7.64546971 36.1316538,10.0274443 C36.1316538,12.4906277 34.360442,14.3229159 30.9200382,14.3229159 C28.8841625,14.3229159 26.909363,13.5085656 25.8305751,12.4906277" id="Fill-10"></path>
                <path d="M40.6648704,14.2213483 C38.690071,14.2213483 37.936797,13.2642605 37.936797,11.3507635 L37.936797,6.1798654 C37.936797,6.09843037 37.8963057,6.05771286 37.8146444,6.05771286 L37.1631642,6.05771286 C37.0410117,6.05771286 36.9598028,5.97627783 36.9598028,5.85412528 L36.9598028,4.49008855 C36.9598028,4.36793601 37.0410117,4.28650098 37.1631642,4.28650098 L37.8146444,4.28650098 C37.8963057,4.28650098 37.936797,4.24578347 37.936797,4.16434844 L37.936797,1.4772187 C37.936797,1.35506615 38.0184582,1.27363113 38.1406108,1.27363113 L40.0133902,1.27363113 C40.1355428,1.27363113 40.2169778,1.35506615 40.2169778,1.4772187 L40.2169778,4.16434844 C40.2169778,4.24578347 40.2576953,4.28650098 40.3391303,4.28650098 L41.6420908,4.28650098 C41.7642433,4.28650098 41.8456784,4.36793601 41.8456784,4.49008855 L41.8456784,5.85412528 C41.8456784,5.97627783 41.7642433,6.05771286 41.6420908,6.05771286 L40.3391303,6.05771286 C40.2576953,6.05771286 40.2169778,6.09843037 40.2169778,6.1798654 L40.2169778,11.2693285 C40.2169778,11.9615262 40.5020004,12.1854726 41.1331219,12.1854726 L41.6420908,12.1854726 C41.7642433,12.1854726 41.8456784,12.2669076 41.8456784,12.3890601 L41.8456784,14.0175345 C41.8456784,14.139687 41.7642433,14.2213483 41.6420908,14.2213483 L40.6648704,14.2213483" id="Fill-11"></path>
                <path d="M49.2494797,10.8010771 L49.2494797,10.0480293 C49.2494797,9.96636803 49.2087622,9.92587672 49.1273272,9.92587672 L47.4986266,9.92587672 C46.0327961,9.92587672 45.3813159,10.3328257 45.3813159,11.2489697 C45.3813159,12.06332 45.971946,12.4704952 47.0710927,12.4704952 C48.475847,12.4704952 49.2494797,11.9208087 49.2494797,10.8010771 Z M49.4937848,14.0991957 C49.3716323,14.0991957 49.2901972,14.0175345 49.2901972,13.895382 L49.2901972,13.1830517 L49.2698385,13.1830517 C48.8015871,13.8548907 47.885443,14.3229159 46.5012737,14.3229159 C44.7097031,14.3229159 43.203155,13.386413 43.203155,11.3304048 C43.203155,9.19273525 44.7097031,8.21574112 47.1323952,8.21574112 L49.1273272,8.21574112 C49.2087622,8.21574112 49.2494797,8.17479739 49.2494797,8.09358857 L49.2494797,7.62533716 C49.2494797,6.50537931 48.720152,5.99663658 47.0710927,5.99663658 C45.971946,5.99663658 45.300107,6.30201794 44.8318556,6.66847557 C44.7300618,6.74968439 44.6079093,6.72955184 44.546833,6.62753185 L43.793559,5.28408008 C43.7322565,5.1822863 43.7526153,5.08071872 43.8342765,5.01941624 C44.6280418,4.44959725 45.7072822,4.06278086 47.3153978,4.06278086 C50.3081351,4.06278086 51.4072818,5.08071872 51.4072818,7.48282586 L51.4072818,13.895382 C51.4072818,14.0175345 51.326073,14.0991957 51.2039204,14.0991957 L49.4937848,14.0991957 L49.4937848,14.0991957 Z" id="Fill-12"></path>
                <path d="M65.7154163,14.0991957 C65.5932638,14.0991957 65.512055,14.0175345 65.512055,13.895382 L65.512055,8.23609987 C65.512055,6.97385693 64.8809335,6.09843037 63.6594081,6.09843037 C62.4786001,6.09843037 61.7864024,6.97385693 61.7864024,8.23609987 L61.7864024,13.895382 C61.7864024,14.0175345 61.7049674,14.0991957 61.5828148,14.0991957 L59.7100354,14.0991957 C59.5878828,14.0991957 59.5064478,14.0175345 59.5064478,13.895382 L59.5064478,8.23609987 C59.5064478,6.97385693 58.8753263,6.09843037 57.6538009,6.09843037 C56.472993,6.09843037 55.7807952,6.97385693 55.7807952,8.23609987 L55.7807952,13.895382 C55.7807952,14.0175345 55.6993602,14.0991957 55.5772077,14.0991957 L53.7044282,14.0991957 C53.5822757,14.0991957 53.5006144,14.0175345 53.5006144,13.895382 L53.5006144,4.49008855 C53.5006144,4.36793601 53.5822757,4.28650098 53.7044282,4.28650098 L55.5772077,4.28650098 C55.6993602,4.28650098 55.7807952,4.36793601 55.7807952,4.49008855 L55.7807952,5.20264505 L55.801154,5.20264505 C56.2286879,4.59188234 57.0837557,4.06278086 58.3867162,4.06278086 C59.5471653,4.06278086 60.4834419,4.53080607 61.0740721,5.36551511 L61.0944309,5.36551511 C61.8474787,4.55116482 62.824699,4.06278086 64.2294533,4.06278086 C66.5094079,4.06278086 67.7920096,5.6098202 67.7920096,7.70677219 L67.7920096,13.895382 C67.7920096,14.0175345 67.7105745,14.0991957 67.5886482,14.0991957 L65.7154163,14.0991957" id="Fill-13"></path>
                <path d="M75.7567967,11.0250234 C75.8995342,10.5771307 75.9606105,10.0885206 75.9606105,9.19273525 C75.9606105,8.29694994 75.8995342,7.80833977 75.7567967,7.36067332 C75.4921329,6.54632303 74.8612376,6.09843037 73.9453198,6.09843037 C73.0085907,6.09843037 72.3776955,6.54632303 72.1128054,7.36067332 C71.9702941,7.80833977 71.909444,8.29694994 71.909444,9.19273525 C71.909444,10.0885206 71.9702941,10.5771307 72.1128054,11.0250234 C72.3776955,11.8393737 73.0085907,12.2872663 73.9453198,12.2872663 C74.8612376,12.2872663 75.4921329,11.8393737 75.7567967,11.0250234 Z M69.8328508,17.7635458 C69.7106983,17.7635458 69.6292632,17.6821108 69.6292632,17.5599582 L69.6292632,4.49008855 C69.6292632,4.36793601 69.7106983,4.28650098 69.8328508,4.28650098 L71.7056303,4.28650098 C71.8277828,4.28650098 71.909444,4.36793601 71.909444,4.49008855 L71.909444,5.22300381 L71.9295766,5.22300381 C72.3980542,4.55116482 73.2121783,4.06278086 74.5354975,4.06278086 C76.2049156,4.06278086 77.4262148,4.85654618 77.9351838,6.42417049 C78.1794888,7.1774445 78.2815088,7.86964225 78.2815088,9.19273525 C78.2815088,10.5160545 78.1794888,11.2082522 77.9351838,11.9615262 C77.4262148,13.5289243 76.2049156,14.3229159 74.5354975,14.3229159 C73.2121783,14.3229159 72.3980542,13.8345319 71.9295766,13.1626929 L71.909444,13.1626929 L71.909444,17.5599582 C71.909444,17.6821108 71.8277828,17.7635458 71.7056303,17.7635458 L69.8328508,17.7635458 L69.8328508,17.7635458 Z" id="Fill-15"></path>
                <path d="M14.2766778,1.50911408 C14.2766778,2.23139755 13.6910242,2.81705113 12.9687408,2.81705113 C12.2466835,2.81705113 11.6610299,2.23139755 11.6610299,1.50911408 C11.6610299,0.787056829 12.2466835,0.201403247 12.9687408,0.201403247 C13.6910242,0.201403247 14.2766778,0.787056829 14.2766778,1.50911408" id="Fill-19"></path>
            </g>
        </g>
    </g>
</svg>