<?xml version="1.0" encoding="UTF-8" standalone="no"?>
<svg width="74px" height="68px" viewBox="0 0 74 68" version="1.1" xmlns="http://www.w3.org/2000/svg" xmlns:xlink="http://www.w3.org/1999/xlink">
    <!-- Generator: Sketch 40.3 (33839) - http://www.bohemiancoding.com/sketch -->
    <title>crash</title>
    <desc>Created with Sketch.</desc>
    <defs></defs>
    <g id="Page-1" stroke="none" stroke-width="1" fill="none" fill-rule="evenodd">
        <g id="Page-2" transform="translate(-338.000000, -334.000000)" fill="#304561">
            <g id="crash" transform="translate(338.000000, 334.000000)">
                <path d="M73.414,1.059 L41.801,13.36 L26.719,0 L23.676,13.094 L1.191,8.465 L15.875,31.614 L0,37.434 L15.078,44.711 L13.492,67.86 L33.598,50.133 L49.469,64.418 L55.289,43.254 L69.18,44.84 L60.98,23.809 L73.414,1.059 Z M39.684,35.715 L44.047,51.985 L33.73,37.965 L25.531,47.094 L29.633,35.586 L14.152,36.114 L28.437,30.825 L19.973,22.094 L31.215,27.254 L36.637,15.879 L37.297,29.106 L49.203,21.434 L41.797,31.883 L53.57,34 L39.684,35.715 Z" id="icon"></path>
            </g>
        </g>
    </g>
</svg>