<?xml version="1.0" encoding="UTF-8" standalone="no"?>
<svg width="82px" height="79px" viewBox="0 0 82 79" version="1.1" xmlns="http://www.w3.org/2000/svg" xmlns:xlink="http://www.w3.org/1999/xlink">
    <!-- Generator: Sketch 41.2 (35397) - http://www.bohemiancoding.com/sketch -->
    <title>error</title>
    <desc>Created with Sketch.</desc>
    <defs></defs>
    <g id="Page-1" stroke="none" stroke-width="1" fill="none" fill-rule="evenodd">
        <g id="Page-2" transform="translate(-100.000000, -426.000000)" fill="#304561">
            <g id="error" transform="translate(100.000000, 426.000000)">
                <path d="M46.13544,36.64752 L54.05088,36.64752 C54.05088,31.395 61.96788,28.73208 61.96788,22.10832 C61.96788,14.19288 56.7138,10.23204 50.09004,10.23204 C42.1746,10.23204 36.91584,16.84956 38.21376,23.47332 L46.1292,23.47332 C46.1292,19.4454 47.42712,18.14748 50.09004,18.14748 C52.75296,18.14748 54.05088,19.4454 54.05088,22.10832 C54.05088,26.06916 46.13544,27.43416 46.13544,36.64752 Z M28.1892,51.66252 C31.395,51.66252 33.71628,49.40832 33.71628,46.20252 C33.71628,42.99828 31.395,40.67544 28.1892,40.67544 C24.98496,40.67544 22.66212,42.99828 22.66212,46.20252 C22.66212,49.40832 24.98496,51.66252 28.1892,51.66252 Z M50.09628,51.18828 C53.16792,51.18828 55.42212,48.93252 55.42212,45.9342 C55.42212,42.86412 53.16792,40.60836 50.09628,40.60836 C47.0262,40.60836 44.84376,42.86412 44.84376,45.9342 C44.84376,48.93876 47.0262,51.18828 50.09628,51.18828 Z M28.1892,36.44628 C31.5354,36.44628 31.26084,36.44628 31.5354,33.03456 L33.17496,14.13204 C33.44796,10.71876 33.17496,10.71876 29.82876,10.71876 L26.5512,10.71876 C23.205,10.71876 22.93044,10.71876 23.205,14.13204 L24.84456,33.03456 C25.11912,36.44628 24.84456,36.44628 28.1892,36.44628 Z M1.42108547e-14,78.48828 L1.42108547e-14,10.23828 C1.42108547e-14,3.6192 3.6192,0 10.23672,0 L71.66328,0 C78.2808,0 81.9,3.6192 81.9,10.23828 L81.9,51.18828 C81.9,57.8058 78.2808,61.425 71.66328,61.425 L17.06328,61.425 L1.42108547e-14,78.48828 Z" id="icon"></path>
            </g>
        </g>
    </g>
</svg>