<?xml version="1.0" encoding="UTF-8"?>
<svg width="64px" height="83px" viewBox="0 0 64 83" version="1.1" xmlns="http://www.w3.org/2000/svg" xmlns:xlink="http://www.w3.org/1999/xlink">
    <!-- Generator: Sketch 42 (36781) - http://www.bohemiancoding.com/sketch -->
    <title>help</title>
    <desc>Created with Sketch.</desc>
    <defs></defs>
    <g id="Page-1" stroke="none" stroke-width="1" fill="none" fill-rule="evenodd">
        <g id="Page-2" transform="translate(-65.000000, -343.000000)" fill="#304561">
            <g id="help" transform="translate(65.000000, 343.000000)">
                <path d="M15.7420559,58.4606448 C6.76301637,52.9285646 0.777367047,43.006202 0.777367047,31.685816 C0.777367047,14.3298002 14.8471978,0.259969474 32.2032136,0.259969474 C49.5592293,0.259969474 63.6290601,14.3298002 63.6290601,31.685816 C63.6290601,43.006202 57.6434108,52.9285646 48.6643713,58.4606448 L48.6643713,67.9792599 C48.6643713,69.0839547 47.7667045,69.9794867 46.6544919,69.9794867 L17.7519352,69.9794867 C16.6419095,69.9794867 15.7420559,69.0845722 15.7420559,67.9792599 L15.7420559,58.4606448 Z M53.0353879,37.7570547 L53.0584217,37.6610804 C53.0891335,37.524797 53.1044894,37.3750771 53.1044894,37.2407132 L53.1044894,27.7488582 C53.1044894,23.3321224 49.5112128,19.7330874 45.0887186,19.7330874 L44.6837072,19.7330874 C40.2592935,19.7330874 36.6679365,23.3244445 36.6679365,27.7488582 L36.6679365,37.2407132 C36.6679365,37.0084554 36.7120846,36.7685198 36.788864,36.5516179 C36.7063262,36.7685198 36.6237883,37.0986712 36.6237883,37.3386069 C36.6237883,38.4711033 36.1880651,39.5268202 35.3857203,40.3291651 C34.5910533,41.1315099 33.525739,41.5672331 32.3932426,41.5672331 C32.3798062,41.5672331 31.9747948,41.574911 31.9747948,41.574911 C29.6502981,41.574911 27.7519271,39.67654 27.7519271,37.3386069 C27.7519271,37.2407132 27.7461686,28.0022302 27.7461686,28.0022302 C27.7461686,28.1308357 27.7308127,28.2651997 27.7077789,28.3938052 C27.7308127,28.2651997 27.7519271,28.100124 27.7519271,27.973438 C27.7519271,23.5567022 24.16057,19.9576672 19.7380758,19.9576672 L19.3253864,19.9576672 C14.9086507,19.9576672 11.3096157,23.5567022 11.3096157,27.973438 C11.3019377,28.0713317 11.3019377,37.3078951 11.3019377,37.3078951 C11.3019377,38.3501757 12.1503503,39.1966687 13.1926308,39.1966687 C14.2406698,39.1966687 15.0814044,38.3501757 15.0814044,37.3078951 L15.0814044,28.0713317 C15.0814044,25.6412633 16.9778559,23.7448118 19.3177085,23.7448118 L19.7303978,23.7448118 C22.0625725,23.7448118 23.959024,25.6412633 23.959024,27.973438 C23.959024,27.8448324 23.966702,27.7104685 23.9954943,27.5837824 C23.966702,27.7104685 23.9513461,27.8755442 23.9513461,28.0099082 L23.9513461,37.2483911 C23.959024,41.7687791 27.5503811,45.3601361 31.9671169,45.3601361 L32.3798062,45.3601361 C34.5161934,45.3601361 36.5258945,44.521321 38.0403685,43.014525 C39.5548424,41.5000511 40.387899,39.482672 40.387899,37.3462848 C40.387899,37.5862205 40.3418314,37.8184782 40.2592935,38.0353801 C40.3495093,37.8184782 40.4243693,37.4883268 40.4243693,37.2483911 L40.4243693,27.7565361 C40.4243693,25.4243614 42.3284987,23.5259904 44.6606734,23.5259904 L45.0656848,23.5259904 C47.3978595,23.5259904 49.3019889,25.4243614 49.3019889,27.7565361 L49.3019889,37.2483911 C49.3019889,37.1063492 49.3173448,36.9623878 49.3461371,36.8203459 L49.3250228,36.9182396 C49.092765,37.9374863 49.7223562,38.9509746 50.7416029,39.1909103 C51.7838835,39.4078121 52.7954523,38.770543 53.0353879,37.7570547 Z M19.5372791,78.3950043 C19.5372791,76.0632701 21.4205909,74.1730261 23.7630026,74.1730261 L40.6434245,74.1730261 C42.9772272,74.1730261 44.8691481,76.0680147 44.8691481,78.3950043 C44.8691481,80.7267384 42.9858362,82.6169824 40.6434245,82.6169824 L23.7630026,82.6169824 C21.4291999,82.6169824 19.5372791,80.7219938 19.5372791,78.3950043 Z" id="icon"></path>
            </g>
        </g>
    </g>
</svg>