<?xml version="1.0" encoding="UTF-8" standalone="no"?>
<svg width="25px" height="25px" viewBox="0 0 25 25" version="1.1" xmlns="http://www.w3.org/2000/svg" xmlns:xlink="http://www.w3.org/1999/xlink">
    <!-- Generator: Sketch 40.3 (33839) - http://www.bohemiancoding.com/sketch -->
    <title>feedback</title>
    <desc>Created with Sketch.</desc>
    <defs></defs>
    <g id="Page-1" stroke="none" stroke-width="1" fill="none" fill-rule="evenodd">
        <g transform="translate(-440.000000, -457.000000)" id="feedback" fill="#009CFF">
            <g transform="translate(440.000000, 457.000000)">
                <path d="M0.518618311,21.7287471 C0.948279977,21.2260862 1.26327631,20.8224243 1.51594004,20.1010993 C2.03926728,18.153122 1.4272744,15.9214813 1.4272744,15.9214813 L1.43127435,15.924148 C1.0289457,14.721162 0.808948265,13.4345103 0.808948265,12.0961925 C0.808948265,5.4152703 6.22555188,0 12.9051408,0 C19.5833964,0 25,5.37493743 25,12.0558597 C25,17.2261328 21.7553711,21.5764155 17.1914242,23.3263951 L17.1940909,23.3263951 C17.1940909,23.3263951 17.1654245,23.3783945 17.1134251,23.3967276 C16.5157654,23.6193917 15.8947727,23.8147228 15.2567801,23.9397213 C12.7851422,24.4983815 8.02086431,25.1400407 1.38827485,24.0280536 C-0.260039291,23.7470569 -0.29137226,22.6780693 0.518618311,21.7287471 L0.518618311,21.7287471 L0.518618311,21.7287471 Z M6.66119428,13.6851739 C5.80895248,13.6851739 5.11688378,12.9941125 5.11688378,12.1403597 C5.11688378,11.2866068 5.80744141,10.5960492 6.66119428,10.5960492 C7.51494716,10.5960492 8.20550479,11.2886216 8.20550479,12.1403597 C8.20550479,12.9941125 7.5129324,13.6851739 6.66119428,13.6851739 L6.66119428,13.6851739 L6.66119428,13.6851739 Z M12.6611943,13.6851739 C11.8089525,13.6851739 11.1168838,12.9941125 11.1168838,12.1403597 C11.1168838,11.2866068 11.8074414,10.5960492 12.6611943,10.5960492 C13.5149472,10.5960492 14.2055048,11.2886216 14.2055048,12.1403597 C14.2055048,12.9941125 13.5129324,13.6851739 12.6611943,13.6851739 L12.6611943,13.6851739 L12.6611943,13.6851739 Z M18.6611943,13.6851739 C17.8089525,13.6851739 17.1168838,12.9941125 17.1168838,12.1403597 C17.1168838,11.2866068 17.8074414,10.5960492 18.6611943,10.5960492 C19.5149472,10.5960492 20.2055048,11.2886216 20.2055048,12.1403597 C20.2055048,12.9941125 19.5129324,13.6851739 18.6611943,13.6851739 L18.6611943,13.6851739 L18.6611943,13.6851739 Z" id="icon"></path>
            </g>
        </g>
    </g>
</svg>