<?xml version="1.0" encoding="UTF-8" standalone="no"?>
<svg width="22px" height="18px" viewBox="0 0 22 18" version="1.1" xmlns="http://www.w3.org/2000/svg" xmlns:xlink="http://www.w3.org/1999/xlink">
    <!-- Generator: Sketch 40.3 (33839) - http://www.bohemiancoding.com/sketch -->
    <title>icon</title>
    <desc>Created with Sketch.</desc>
    <defs></defs>
    <g id="Page-1" stroke="none" stroke-width="1" fill="none" fill-rule="evenodd">
        <g transform="translate(-287.000000, -521.000000)" id="data" fill="#009CFF">
            <g transform="translate(287.000000, 521.000000)">
                <path d="M2,4 C3.1045695,4 4,3.1045695 4,2 C4,0.8954305 3.1045695,0 2,0 C0.8954305,0 0,0.8954305 0,2 C0,3.1045695 0.8954305,4 2,4 Z M14,4 C15.1045695,4 16,3.1045695 16,2 C16,0.8954305 15.1045695,0 14,0 C12.8954305,0 12,0.8954305 12,2 C12,3.1045695 12.8954305,4 14,4 Z M20,4 C21.1045695,4 22,3.1045695 22,2 C22,0.8954305 21.1045695,0 20,0 C18.8954305,0 18,0.8954305 18,2 C18,3.1045695 18.8954305,4 20,4 Z M2,11 C3.1045695,11 4,10.1045695 4,9 C4,7.8954305 3.1045695,7 2,7 C0.8954305,7 0,7.8954305 0,9 C0,10.1045695 0.8954305,11 2,11 Z M8,11 C9.1045695,11 10,10.1045695 10,9 C10,7.8954305 9.1045695,7 8,7 C6.8954305,7 6,7.8954305 6,9 C6,10.1045695 6.8954305,11 8,11 Z M8,18 C9.1045695,18 10,17.1045695 10,16 C10,14.8954305 9.1045695,14 8,14 C6.8954305,14 6,14.8954305 6,16 C6,17.1045695 6.8954305,18 8,18 Z M14,18 C15.1045695,18 16,17.1045695 16,16 C16,14.8954305 15.1045695,14 14,14 C12.8954305,14 12,14.8954305 12,16 C12,17.1045695 12.8954305,18 14,18 Z" id="icon"></path>
            </g>
        </g>
    </g>
</svg>