<?xml version="1.0" encoding="UTF-8"?>
<svg width="23px" height="23px" viewBox="0 0 23 23" version="1.1" xmlns="http://www.w3.org/2000/svg" xmlns:xlink="http://www.w3.org/1999/xlink">
    <!-- Generator: Sketch 52.6 (67491) - http://www.bohemiancoding.com/sketch -->
    <title>pie</title>
    <desc>Created with Sketch.</desc>
    <g id="Page-1" stroke="none" stroke-width="1" fill="none" fill-rule="evenodd">
        <g transform="translate(-232.000000, -227.000000)" fill="#009CFF" id="pie">
            <g transform="translate(232.000000, 227.000000)">
                <path d="M13.2662363,16.1457641 L17.3454977,20.8384175 C17.106124,20.9899553 16.8611308,21.1322591 16.6099728,21.2646428 C14.2924091,22.4897846 11.5970182,22.8675334 9.02938186,22.3519675 C6.8751705,21.9180516 4.86089323,20.8225723 3.30996141,19.268661 C1.7570955,17.7168144 0.659472511,15.7054905 0.225609136,13.5513314 C-0.230757909,11.2868507 0.00916868191,8.93669506 0.909650046,6.81311552 C1.76213982,4.80388256 3.21699436,3.07849052 5.02403641,1.86158143 C6.45399024,0.900835488 8.1052541,0.285873964 9.8089932,0.0571260358 L9.8089932,6.24363497 C9.70496453,6.27453319 9.60192334,6.30857782 9.49999323,6.34564313 C9.4264847,6.3711679 9.35195425,6.40179449 9.27844573,6.42936052 L9.27640448,6.42936052 C9.27640448,6.42936052 9.27436061,6.42936052 9.27436061,6.43140177 L9.27231936,6.43140177 C9.24169016,6.44365449 9.21412414,6.45692654 9.18247561,6.47019858 C9.07017027,6.52124552 8.95786493,6.57739949 8.85067448,6.63355086 C8.60360482,6.76627393 8.3687722,6.91430768 8.14418243,7.08278268 C8.12580595,7.0950354 8.1084488,7.10830745 8.09109425,7.12362074 C8.09926186,7.11851631 8.10641016,7.11137063 8.11355584,7.10524427 C8.09109425,7.1103487 8.05229743,7.15424995 8.03392095,7.16854393 C7.99104164,7.20427756 7.94714039,7.2400112 7.90630232,7.27574483 C7.80420845,7.3625254 7.70721641,7.4544104 7.61226823,7.54936643 C7.51017436,7.65146029 7.41011914,7.75559802 7.3161955,7.86585165 C7.27331618,7.91689858 7.22941493,7.96794813 7.18857686,8.01899506 C7.17632414,8.03430836 7.16305209,8.05166552 7.14978005,8.06800074 C7.14978005,8.06800074 7.14978005,8.07004199 7.1477388,8.07004199 L7.14569493,8.07208586 C7.14569493,8.07208586 7.14569493,8.07412711 7.14365368,8.07412711 C6.97826016,8.30077904 6.82510368,8.53355211 6.68932527,8.77858052 C6.62602561,8.89599029 6.56374789,9.01850449 6.50759652,9.14101347 C6.49534641,9.16960143 6.48207436,9.1992087 6.4687997,9.22779404 C6.4687997,9.22983529 6.4687997,9.22983529 6.46675845,9.23289847 L6.46675845,9.23493972 C6.45450573,9.26556893 6.44123368,9.29823938 6.42796164,9.32886858 C6.41570891,9.35949779 6.40243686,9.39216824 6.392228,9.42279745 C6.29829914,9.68007858 6.22070811,9.94552472 6.16557607,10.2140236 C6.14719959,10.2936585 6.13290561,10.3722714 6.11963357,10.4539476 C6.11452914,10.486618 6.10738084,10.523371 6.10125709,10.5560414 L6.09921323,10.5580853 C6.09921323,10.698976 6.07062789,10.8388421 6.06654277,10.9817819 C6.06450152,11.0277244 6.06143834,11.0716256 6.06143834,11.1165462 C6.06143834,11.1390052 6.05939709,11.1624887 6.05939709,11.1859722 L6.05939709,11.3237997 C6.06143834,11.4851107 6.06960595,11.6454077 6.08492186,11.805702 C6.0900263,11.8516445 6.09513073,11.8996309 6.10023516,11.9465927 C6.10023516,11.9568015 6.10227641,11.9670104 6.10533959,11.9772219 C6.10533959,11.9670104 6.10329834,11.9588428 6.10023516,11.9486339 C6.10023516,11.9506752 6.09819391,11.9568015 6.09819391,11.960884 L6.09819391,11.9976396 C6.10023516,12.0201012 6.10636152,12.0435821 6.11044402,12.0691069 C6.11044402,12.0711481 6.11044402,12.0711481 6.11248527,12.0742113 C6.11452914,12.0793157 6.11452914,12.086464 6.11759232,12.0925878 C6.12269675,12.1109669 6.12575993,12.1252582 6.12984243,12.1415935 C6.13188368,12.1497611 6.13188368,12.1538462 6.13494686,12.1599726 C6.15740845,12.2855499 6.18395255,12.4101054 6.21458175,12.5326248 C6.25031539,12.6776006 6.29115345,12.8185044 6.34015914,12.961418 C6.36057948,13.0247177 6.38303845,13.0890367 6.40958255,13.1533582 C6.43000289,13.2044052 6.44837936,13.3044578 6.48309107,13.3422353 C6.47084095,13.3116061 6.46267334,13.2932296 6.46062948,13.2860839 C6.46267334,13.2911884 6.46573652,13.3013972 6.4728822,13.3146719 C6.48309107,13.3350896 6.49125868,13.3555099 6.50147016,13.3759303 C6.51372027,13.4065595 6.53005811,13.4371887 6.54434948,13.4678153 C6.56681107,13.5188622 6.59335516,13.5699092 6.617858,13.6189148 C6.6791138,13.7393878 6.74343539,13.8567976 6.81183948,13.9711546 C6.885348,14.096732 6.96498289,14.216183 7.0497222,14.3366455 C7.07831016,14.3774836 7.12323073,14.474473 7.17019516,14.4979565 C7.1599863,14.4857038 7.15181868,14.4754949 7.14773357,14.4673273 C7.14977482,14.4693686 7.14977482,14.4724318 7.152838,14.4754949 C7.16100561,14.4836626 7.16509073,14.4938714 7.17325834,14.5010171 C7.18550845,14.5193962 7.20184368,14.5367507 7.21409641,14.552064 C7.3896988,14.7664632 7.58162595,14.970664 7.78582936,15.1595254 C7.88588198,15.2493692 7.98491527,15.3351304 8.09008277,15.4198671 C8.10845925,15.4321198 8.12581641,15.4484551 8.14317095,15.4607052 C8.12479448,15.4484551 8.1105005,15.435183 8.09212402,15.4219084 C8.10233289,15.4423287 8.15338243,15.4678509 8.17380016,15.4801036 C8.22689095,15.5209417 8.28406425,15.5597385 8.33715243,15.5944502 C8.56380436,15.7475936 8.80167402,15.8884843 9.04670243,16.0079274 C9.11306527,16.0405979 9.1794255,16.0712271 9.24578834,16.0998124 C9.26620607,16.1079801 9.28662641,16.1181889 9.30704675,16.1253372 C9.28662641,16.1171696 9.26620868,16.1069607 9.24885152,16.0998124 C9.26926925,16.1181889 9.31827493,16.1284004 9.34278039,16.1386093 C9.47039902,16.1896562 9.59801766,16.2325381 9.72870993,16.2733736 C9.9921122,16.3550497 10.2616565,16.4183494 10.535252,16.4622506 C10.5577136,16.4642919 10.5811945,16.4704182 10.6046754,16.4724595 C10.6097798,16.4724595 10.6148843,16.4745034 10.6199887,16.4745034 C10.6097798,16.4724595 10.5944665,16.4724595 10.5740462,16.4693989 C10.6026341,16.481649 10.6475547,16.4796078 10.6781839,16.481649 C10.7496512,16.4898167 10.8190746,16.4939018 10.8905419,16.5020694 C11.0334764,16.5122782 11.1764214,16.5173827 11.319335,16.5173827 C11.4928962,16.5173827 11.6644135,16.5092151 11.837985,16.4949211 C11.8808644,16.4928798 11.9217024,16.4867535 11.9656037,16.482671 C11.9707081,16.482671 11.9880653,16.4806271 12.0064418,16.4775665 C12.0084856,16.4775665 12.0146094,16.4775665 12.0186945,16.4755227 L12.0207357,16.4755227 C12.0973074,16.4673551 12.1738791,16.4500005 12.2473877,16.4367259 C12.5740922,16.3754674 12.8957002,16.2856263 13.2070888,16.1692463 C13.2268046,16.1613604 13.2465204,16.1534741 13.2662363,16.1457641 Z M19.6468727,18.9130873 L15.6131209,14.2727867 C15.6167428,14.2674885 15.6203452,14.2621951 15.6239262,14.2569087 C15.7107068,14.1292901 15.7923829,13.9996276 15.8689546,13.8638439 C15.9455263,13.7290796 16.0169936,13.5902223 16.0833538,13.4503667 C16.0986671,13.414633 16.1160243,13.3788994 16.1323595,13.3431657 C16.1344007,13.3380613 16.1405271,13.3278524 16.1446096,13.3145778 C16.1446096,13.316619 16.1425683,13.3196822 16.1425683,13.3227454 C16.178302,13.253322 16.2007636,13.1747064 16.2262857,13.1032418 C16.3334866,12.8051304 16.418226,12.4988384 16.4764186,12.1864304 C16.4866274,12.1333422 16.494795,12.0822927 16.5019433,12.0281826 C16.5019433,12.0200149 16.5070478,12.0026604 16.510111,11.9853032 C16.510111,11.983262 16.5121522,11.9771356 16.5121522,11.9750944 C16.5223611,11.905671 16.5274655,11.8321598 16.5325725,11.7627364 C16.5448227,11.5993842 16.5529903,11.4360319 16.5529903,11.270641 C16.5529903,11.1277064 16.5478858,10.9847614 16.537677,10.8418478 C16.5325725,10.7703805 16.5254243,10.7009571 16.5172566,10.6294898 C16.5152154,10.6009019 16.5172566,10.5529181 16.5050065,10.5253521 C16.510111,10.5559813 16.5131741,10.5743578 16.5131741,10.5835473 C16.5131741,10.5784429 16.5111303,10.568234 16.5111303,10.5549594 C16.509089,10.5427067 16.509089,10.5324978 16.5060258,10.5222889 C16.4651878,10.2486673 16.4018881,9.97914915 16.3222558,9.71574688 C16.2793765,9.5748562 16.2303708,9.43499006 16.17728,9.29714688 C16.1670712,9.27162211 16.1568623,9.22057518 16.1384832,9.20321802 C16.1466508,9.21853131 16.150736,9.23180597 16.1537991,9.23895165 C16.1517553,9.2369104 16.1517553,9.23384722 16.1486947,9.23078404 C16.1435877,9.22057518 16.1384832,9.2103637 16.136442,9.20015483 C16.107854,9.13889643 16.0802906,9.07764063 16.0527246,9.01638483 C15.9353148,8.77339768 15.7995286,8.54164393 15.6525246,8.31702802 C15.6096453,8.25372836 15.5626808,8.18940938 15.5177603,8.12508779 C15.5055102,8.10466745 15.4789635,8.05566438 15.459565,8.04341165 C15.4697739,8.05566177 15.4779415,8.06587324 15.4820266,8.07404086 C15.4799854,8.07199961 15.4799854,8.06893643 15.4769222,8.06587324 C15.4687546,8.05770563 15.4646695,8.04749677 15.4565019,8.04034847 C15.3799302,7.94335904 15.3013172,7.85147143 15.2186191,7.75959165 C15.0328053,7.55336006 14.830651,7.36143029 14.6162544,7.18276211 C14.5835839,7.15417415 14.546831,7.12661074 14.5121166,7.09904472 C14.4406494,7.04084949 14.532537,7.11129745 14.5345782,7.1174212 C14.5141605,7.07658313 14.412064,7.0255362 14.3732672,7.00001143 C14.2630057,6.92343972 14.1517197,6.84891188 14.0363433,6.78050779 C13.910766,6.70393608 13.7831473,6.63553199 13.6534979,6.56814983 C13.5973465,6.53956188 13.5432338,6.51506165 13.4881044,6.4864737 C13.4390987,6.46401472 13.3706946,6.41705029 13.3196477,6.40990199 C13.3380241,6.41806961 13.3523181,6.42215472 13.3604857,6.42828108 C13.3553813,6.42623722 13.3523181,6.42623722 13.3482356,6.42317665 C13.3278153,6.41500904 13.3073975,6.40479756 13.284936,6.39765188 C13.2543068,6.38539915 13.2216363,6.37212711 13.1910071,6.36191824 C13.1277074,6.33945665 13.0633885,6.31597574 12.9990669,6.29249483 C12.9364691,6.27179336 12.8729197,6.25204344 12.8089932,6.23347506 L12.8089932,0.0520308311 C12.8870533,0.0616553596 12.9645219,0.0719708757 13.0409347,0.0829914257 C15.2257779,0.407657335 17.2880938,1.41022211 18.9237074,2.89265052 C20.5470108,4.36282097 21.7291847,6.32095733 22.2704688,8.44140052 C22.8912074,10.886588 22.6717143,13.4747414 21.6813813,15.7820596 L21.6812375,15.7823053 C21.1875676,16.9298563 20.4940808,17.9907022 19.6468709,18.9130853 L19.6468727,18.9130873 Z" id="icon"></path>
            </g>
        </g>
    </g>
</svg>