<?xml version="1.0" encoding="UTF-8"?>
<svg width="23px" height="23px" viewBox="0 0 23 23" version="1.1" xmlns="http://www.w3.org/2000/svg" xmlns:xlink="http://www.w3.org/1999/xlink">
    <!-- Generator: Sketch 46.2 (44496) - http://www.bohemiancoding.com/sketch -->
    <title>link</title>
    <desc>Created with Sketch.</desc>
    <defs></defs>
    <g id="Page-1" stroke="none" stroke-width="1" fill="none" fill-rule="evenodd">
        <g transform="translate(-103.000000, -309.000000)" id="link" fill-rule="nonzero" fill="#009CFF">
            <g transform="translate(103.000000, 308.500000)">
                <path d="M8.30943238,18.5920766 L8.30940487,18.5921042 C8.30940487,18.2342057 8.4469762,17.9311229 8.72103757,17.6850044 C8.96932135,17.4378212 9.29926583,17.3002526 9.62921031,17.3002526 C9.9591548,17.3002526 10.2901888,17.4378102 10.5373831,17.6850044 L12.1602521,19.3078735 C13.0124619,20.1612389 14.1689184,20.628752 15.3790817,20.628752 C16.6171439,20.628752 17.744546,20.1612389 18.5979114,19.3078735 C19.4512768,18.4556636 19.9187899,17.327106 19.9187899,16.0890438 C19.9187899,14.8509816 19.4512768,13.7235796 18.5979114,12.8702142 L16.9750423,11.2473452 C16.7278591,10.9990614 16.5902905,10.6691169 16.5902905,10.3391724 C16.5902905,10.0092279 16.7278481,9.67819391 16.9750423,9.43099968 C17.2233261,9.18381645 17.5532706,9.04624787 17.8832151,9.04624787 C18.2131596,9.04624787 18.5441936,9.18380545 18.7913878,9.43099968 L20.4142569,11.0538687 C21.7630893,12.4014905 22.5057395,14.1899371 22.5057395,16.0610899 C22.5057395,17.9322977 21.7619887,19.7205792 20.4142569,21.0683111 C19.066635,22.4171435 17.2782435,23.1597937 15.4070357,23.1597937 C13.5358278,23.1597937 11.7475463,22.4171435 10.3998145,21.0414577 L8.69418419,19.5002494 C8.44700096,19.2519656 8.30943238,18.9220211 8.30943238,18.5920766 Z M12.051848,6.292345 L10.4837588,4.61466865 C9.63154898,3.76130323 8.47509247,3.29379016 7.26492918,3.29379016 C6.02686698,3.29379016 4.89946495,3.76130323 4.04609953,4.61466865 C3.19273411,5.46687849 2.72522105,6.5954361 2.72522105,7.83349829 C2.72522105,9.07156049 3.19273411,10.1989625 4.04609953,11.0523279 L5.66896856,12.675197 C5.91615179,12.9234807 6.05372037,13.2534252 6.05372037,13.5833697 C6.05372037,13.9133142 5.91616279,14.2443482 5.66896856,14.4915424 C5.17350156,15.0138628 4.37494347,15.0138628 3.85262308,14.4915424 L2.22975405,12.8686734 C0.880921632,11.5210516 0.138271407,9.73260503 0.138271407,7.86145223 C0.138271407,5.9902444 0.880949145,4.20193539 2.22868101,2.85313049 C3.57740338,1.50539862 5.36584995,0.789601781 7.23700275,0.789601781 C9.10711004,0.789601781 10.8954466,1.50539862 12.2453245,2.88108442 L13.8681935,4.50395345 C14.3636605,4.99942045 14.3636605,5.796878 13.8681935,6.292345 C13.6199098,6.53952822 13.2899653,6.67709681 12.9600208,6.67709681 C12.6300763,6.67709681 12.2990423,6.53953923 12.051848,6.292345 Z M7.26363603,9.20934918 L7.26363603,9.20934918 C7.29156245,8.8794047 7.42913654,8.57632461 7.64838784,8.32913037 C7.89667161,8.08194715 8.2266161,7.94437857 8.55656058,7.94437857 C8.88650506,7.94437857 9.21753909,8.08193614 9.46473332,8.32913037 L14.9394125,13.7771213 C15.4348795,14.2725883 15.4348795,15.0700458 14.9394125,15.5655128 C14.4439455,16.0878332 13.6453875,16.0878332 13.1230671,15.5655128 L7.64838784,10.1175219 C7.40120461,9.86923815 7.26363603,9.53929366 7.26363603,9.20934918 Z" id="icon"></path>
            </g>
        </g>
    </g>
</svg>