<?xml version="1.0" encoding="UTF-8"?>
<svg width="26px" height="26px" viewBox="0 0 26 26" version="1.1" xmlns="http://www.w3.org/2000/svg" xmlns:xlink="http://www.w3.org/1999/xlink">
    <!-- Generator: Sketch 54 (76480) - https://sketchapp.com -->
    <title>help</title>
    <desc>Created with Sketch.</desc>
    <g id="Page-1" stroke="none" stroke-width="1" fill="none" fill-rule="evenodd">
        <g transform="translate(-490.000000, -266.000000)">
            <g id="info-copy" transform="translate(500.000000, 271.000000)"></g>
            <path d="M506.786957,286.791583 L506.787112,286.791574 C507.132696,287.419027 506.931967,288.202707 506.355137,288.600635 C506.355137,288.600635 504.576616,290.092037 502.333861,288.967152 C501.8373,288.717564 501.417546,288.287332 501.147897,287.810856 C500.386915,286.465225 500.679262,285.019196 500.679262,285.019196 L500.902666,283.247668 L501.484746,278.627668 L499.901725,278.661701 C499.161699,278.678278 498.549082,278.09097 498.533374,277.351815 C498.520283,276.774985 498.876345,276.27582 499.382489,276.075104 L503.437723,274.478121 C504.401936,274.098513 505.492774,274.573247 505.872383,275.537549 C506.017247,275.904066 506.038191,276.28716 505.956159,276.644093 L505.901182,276.884945 L504.316397,283.849796 L503.920212,285.590785 C503.861742,285.85259 503.85389,285.911931 503.836435,286.049814 C503.793676,286.834343 504.908083,286.245293 504.908083,286.245293 C505.577424,285.877011 506.419569,286.122242 506.786957,286.791583 Z M506.589691,270.872243 C506.589691,272.120156 505.578273,273.13153 504.330404,273.13153 C503.08249,273.13153 502.072011,272.120112 502.072011,270.872243 C502.072011,269.624329 503.082557,268.612955 504.330404,268.612955 C505.578318,268.612955 506.589691,269.624373 506.589691,270.872243 Z" id="icon" fill="#009CFF"></path>
        </g>
    </g>
</svg>