<?xml version="1.0" encoding="UTF-8" standalone="no"?>
<svg width="23px" height="23px" viewBox="0 0 23 23" version="1.1" xmlns="http://www.w3.org/2000/svg" xmlns:xlink="http://www.w3.org/1999/xlink">
    <!-- Generator: Sketch 3.7.1 (28215) - http://www.bohemiancoding.com/sketch -->
    <title>right</title>
    <desc>Created with Sketch.</desc>
    <defs></defs>
    <g id="Page-1" stroke="none" stroke-width="1" fill="none" fill-rule="evenodd">
        <g transform="translate(-218.000000, -373.000000)" id="right" fill="#009CFF">
            <g transform="translate(218.000000, 373.000000)">
                <path d="M19.6313415,3.36814737 C15.1408191,-1.12271579 7.8586698,-1.12271579 3.36814737,3.36814737 C-1.12271579,7.8586698 -1.12271579,15.1408191 3.36814737,19.6313415 C7.8586698,24.1222047 15.1408191,24.1222047 19.6313415,19.6313415 C24.1235676,15.1394561 24.1222047,7.8586698 19.6313415,3.36814737 Z M11.5385709,15.3844652 L14.2022643,12.7207718 L5.85282032,12.7210596 C5.18042052,12.7210596 4.63150509,12.1721442 4.63150509,11.4997444 C4.63150509,10.8273446 5.18042052,10.2784292 5.85282032,10.2784292 L14.2002494,10.2784292 L11.536556,7.61473575 C11.0621917,7.14037151 11.0619039,6.36233355 11.536556,5.88768146 C12.0109202,5.41331722 12.789246,5.41331722 13.2636103,5.88768146 L17.9974661,10.6215373 C18.1825487,10.8048929 18.2896261,11.0150178 18.3379836,11.2343537 C18.3604353,11.3356742 18.3682071,11.4177093 18.3684949,11.498593 C18.3682071,11.5794767 18.3604353,11.6615118 18.3437405,11.741532 C18.2896261,11.9821682 18.1828366,12.192581 18.0130096,12.362408 C18.0086919,12.3667256 13.2636103,17.1095045 13.2636103,17.1095045 C12.7901096,17.5870351 12.013223,17.5861715 11.5385709,17.1115194 C11.0642066,16.6371552 11.0642066,15.8588294 11.5385709,15.3844652 Z" id="icon"></path>
            </g>
        </g>
    </g>
</svg>