<?xml version="1.0" encoding="UTF-8" standalone="no"?>
<svg width="23px" height="23px" viewBox="0 0 23 23" version="1.1" xmlns="http://www.w3.org/2000/svg" xmlns:xlink="http://www.w3.org/1999/xlink">
    <!-- Generator: Sketch 3.7.1 (28215) - http://www.bohemiancoding.com/sketch -->
    <title>left</title>
    <desc>Created with Sketch.</desc>
    <defs></defs>
    <g id="Page-1" stroke="none" stroke-width="1" fill="none" fill-rule="evenodd">
        <g transform="translate(-178.000000, -373.000000)" id="left" fill="#009CFF">
            <g transform="translate(178.000000, 373.000000)">
                <path d="M3.36865849,3.36814737 C7.85918092,-1.12271579 15.1413302,-1.12271579 19.6318526,3.36814737 C24.1227158,7.8586698 24.1227158,15.1408191 19.6318526,19.6313415 C15.1413302,24.1222047 7.85918092,24.1222047 3.36865849,19.6313415 C-1.1235676,15.1394561 -1.12220467,7.8586698 3.36865849,3.36814737 L3.36865849,3.36814737 Z M11.4614291,15.3844652 L8.79773572,12.7207718 L17.1471797,12.7210596 C17.8195795,12.7210596 18.3684949,12.1721442 18.3684949,11.4997444 C18.3684949,10.8273446 17.8195795,10.2784292 17.1471797,10.2784292 L8.79975062,10.2784292 L11.463444,7.61473575 C11.9378083,7.14037151 11.9380961,6.36233355 11.463444,5.88768146 C10.9890798,5.41331722 10.210754,5.41331722 9.73638973,5.88768146 L5.00253392,10.6215373 C4.81745127,10.8048929 4.71037391,11.0150178 4.66201639,11.2343537 C4.63956468,11.3356742 4.63179294,11.4177093 4.63150509,11.498593 C4.63179294,11.5794767 4.63956468,11.6615118 4.65625954,11.741532 C4.71037391,11.9821682 4.81716343,12.192581 4.98699044,12.362408 C4.99130807,12.3667256 9.73638973,17.1095045 9.73638973,17.1095045 C10.2098904,17.5870351 10.986777,17.5861715 11.4614291,17.1115194 C11.9357934,16.6371552 11.9357934,15.8588294 11.4614291,15.3844652 L11.4614291,15.3844652 Z" id="icon"></path>
            </g>
        </g>
    </g>
</svg>