<?xml version="1.0" encoding="UTF-8"?>
<svg width="24px" height="25px" viewBox="0 0 24 25" version="1.1" xmlns="http://www.w3.org/2000/svg" xmlns:xlink="http://www.w3.org/1999/xlink">
    <!-- Generator: Sketch 55.2 (78181) - https://sketchapp.com -->
    <title>chart</title>
    <desc>Created with Sketch.</desc>
    <g id="Page-1" stroke="none" stroke-width="1" fill="none" fill-rule="evenodd">
        <g id="chart" fill="#009CFF">
            <path d="M1.75,5.53107481 C2.71649831,5.53107481 3.5,6.3145765 3.5,7.28107481 L3.5,23.2499998 C3.5,24.2164981 2.71649831,24.9999998 1.75,24.9999998 C0.783501688,24.9999998 3.89761678e-14,24.2164981 3.50830476e-14,23.2499998 L3.50830476e-14,7.28107481 C3.51867303e-14,6.3145765 0.783501688,5.53107481 1.75,5.53107481 Z M8.33194834,0 C9.29844666,-1.7754286e-16 10.0819483,0.783501688 10.0819483,1.75 L10.0819483,23.25 C10.0819483,24.2164983 9.29844666,25 8.33194834,25 C7.36545003,25 6.58194834,24.2164983 6.58194834,23.25 L6.58194834,1.75 C6.58194834,0.783501688 7.36545003,1.7754286e-16 8.33194834,0 Z M14.9138967,12 C15.880395,12 16.6638967,12.7835017 16.6638967,13.75 L16.6638967,23.25 C16.6638967,24.2164983 15.880395,25 14.9138967,25 C13.9473984,25 13.1638967,24.2164983 13.1638967,23.25 L13.1638967,13.75 C13.1638967,12.7835017 13.9473984,12 14.9138967,12 Z M21.495845,8.45526215 C22.4623433,8.45526215 23.245845,9.23876384 23.245845,10.2052622 L23.245845,23.2500002 C23.245845,24.2164985 22.4623433,25.0000002 21.495845,25.0000002 C20.5293467,25.0000002 19.745845,24.2164985 19.745845,23.2500002 L19.745845,10.2052622 C19.745845,9.23876384 20.5293467,8.45526215 21.495845,8.45526215 Z" id="icon"></path>
        </g>
    </g>
</svg>