<?xml version="1.0" encoding="UTF-8"?>
<svg width="24px" height="26px" viewBox="0 0 24 26" version="1.1" xmlns="http://www.w3.org/2000/svg" xmlns:xlink="http://www.w3.org/1999/xlink">
    <!-- Generator: Sketch 43.2 (39069) - http://www.bohemiancoding.com/sketch -->
    <title>print</title>
    <desc>Created with Sketch.</desc>
    <defs></defs>
    <g id="Page-1" stroke="none" stroke-width="1" fill="none" fill-rule="evenodd">
        <g transform="translate(-257.000000, -380.000000)" id="print" fill-rule="nonzero" fill="#009CFF">
            <g transform="translate(257.000000, 380.000000)">
                <path d="M19.7492528,5.43200456 L19.6977419,5.43200456 L19.6977419,2.58139645 C19.6977419,1.28584644 18.7132035,0.248809297 17.4166582,0.248809297 L17.3651472,0.248809297 L6.5837428,0.248809297 C5.28722243,0.197298308 4.19868176,1.28584644 4.14715336,2.58139645 L4.14715336,5.43200456 C1.91856849,5.38049358 0.104002286,7.14256848 0,9.37115335 L0,19.479031 C0.0515109887,20.3605624 0.777529052,21.0340891 1.60656163,20.9825856 L5.1841905,20.9825856 L5.1841905,22.7971518 C5.1841905,24.0927018 6.27273118,25.129739 7.51677766,25.129739 L16.2766066,25.129739 C17.5721566,25.129739 18.6091937,24.0927018 18.6091937,22.7971518 L18.6091937,20.9825856 L22.2898296,20.9825856 C23.1188622,20.9825856 23.7933842,20.3090588 23.7933842,19.479031 L23.7933842,19.42752 L23.7924121,9.37214112 C23.7924121,7.19505978 21.9778459,5.43299234 19.8007646,5.43299234 C19.8017367,5.43202024 19.8017367,5.43202024 19.7492536,5.43202024 L19.7492528,5.43200456 Z M3.62914733,10.6161951 C3.05862761,10.6161951 2.59211018,10.1496776 2.59211018,9.57915792 C2.59211018,9.0086382 3.05862761,8.54212077 3.62914733,8.54212077 C4.19966705,8.54212077 4.66618448,9.0086382 4.66618448,9.57915792 C4.66521238,10.1496776 4.19869669,10.6161951 3.62914733,10.6161951 Z M5.70222639,9.57915792 C5.70222639,9.0086382 6.16874382,8.54212077 6.73926354,8.54212077 C7.30978325,8.54212077 7.77630069,9.0086382 7.77630069,9.57915792 C7.77630069,10.1496776 7.30978325,10.6161951 6.73926354,10.6161951 C6.16874382,10.6161951 5.70222639,10.1496776 5.70222639,9.57915792 Z M16.5876331,22.7971518 C16.5876331,22.9526576 16.4321273,23.0566599 16.328125,23.0566599 L7.51679259,23.0566599 C7.36128678,23.0566599 7.25728449,22.9526651 7.25728449,22.7971518 L7.25728449,16.0588984 C7.25728449,15.9033926 7.4127903,15.7993903 7.51679259,15.7993903 L16.2766215,15.7993903 C16.4321273,15.7993903 16.5361296,15.9033852 16.5361296,16.0588984 L16.5361296,22.7971518 L16.5876331,22.7971518 Z M17.6246703,5.43200456 L6.22024734,5.43200456 L6.22024734,2.58139645 C6.27273118,2.42589064 6.42823699,2.32188836 6.58373285,2.32188836 L17.3651373,2.32188836 C17.5206431,2.32188836 17.6246454,2.42588318 17.6246454,2.529878 L17.6246454,2.58138899 L17.6246703,5.43200456 Z" id="icon"></path>
            </g>
        </g>
    </g>
</svg>