<?xml version="1.0" encoding="UTF-8" standalone="no"?>
<svg width="34px" height="27px" viewBox="0 0 34 27" version="1.1" xmlns="http://www.w3.org/2000/svg" xmlns:xlink="http://www.w3.org/1999/xlink" xmlns:sketch="http://www.bohemiancoding.com/sketch/ns">
    <!-- Generator: Sketch 3.4.4 (17249) - http://www.bohemiancoding.com/sketch -->
    <title>export_request</title>
    <desc>Created with Sketch.</desc>
    <defs></defs>
    <g id="Page-1" stroke="none" stroke-width="1" fill="none" fill-rule="evenodd" sketch:type="MSPage">
        <g sketch:type="MSArtboardGroup" transform="translate(-237.000000, -450.000000)" id="export_request" fill="#009CFF">
            <g sketch:type="MSLayerGroup" transform="translate(237.000000, 450.000000)">
                <path d="M27.4982933,9.53002667 C26.6144311,4.61514222 22.3360711,0.875 17.1666667,0.875 C11.99412,0.875 7.71710667,4.61514222 6.83324444,9.53002667 C3.1142,10.4017689 0.333333333,13.7226489 0.333333333,17.7083333 C0.333333333,22.3565778 4.10175556,26.125 8.75,26.125 L25.5833333,26.125 C30.2315778,26.125 34,22.3565778 34,17.7083333 C34,13.7226489 31.2173378,10.4017689 27.4982933,9.53002667 L27.4982933,9.53002667 Z M17.1666667,21.9166667 L10.8543911,15.6043911 L15.0622756,15.6043911 L15.0622756,9.29166667 L19.2710578,9.29166667 L19.2710578,15.6043911 L23.4789422,15.6043911 L17.1666667,21.9166667 Z" id="icon" sketch:type="MSShapeGroup"></path>
            </g>
        </g>
    </g>
</svg>