<?xml version="1.0" encoding="UTF-8" standalone="no"?>
<svg width="24px" height="24px" viewBox="0 0 24 24" version="1.1" xmlns="http://www.w3.org/2000/svg" xmlns:xlink="http://www.w3.org/1999/xlink" xmlns:sketch="http://www.bohemiancoding.com/sketch/ns">
    <!-- Generator: Sketch 3.4.4 (17249) - http://www.bohemiancoding.com/sketch -->
    <title>refresh</title>
    <desc>Created with Sketch.</desc>
    <defs></defs>
    <g id="Page-1" stroke="none" stroke-width="1" fill="none" fill-rule="evenodd" sketch:type="MSPage">
        <g sketch:type="MSArtboardGroup" transform="translate(-421.000000, -384.000000)" id="refresh" fill="#009CFF">
            <g sketch:type="MSLayerGroup" transform="translate(421.000000, 384.000000)">
                <path d="M12.0884177,23.75 C18.34803,23.75 23.4224484,18.6012746 23.4224484,12.25 C23.4224484,5.89872538 18.34803,0.75 12.0884177,0.75 C5.82880548,0.75 0.754387122,5.89872538 0.754387122,12.25 C0.754387122,18.6012746 5.82880548,23.75 12.0884177,23.75 Z M15.5132773,15.4349387 C13.7545348,17.1936813 10.9025676,17.1936813 9.14367761,15.4347913 C7.38493505,13.6760487 7.38493505,10.8240815 9.14367761,9.06533896 C10.9002087,7.3088079 13.7464259,7.30630152 15.5063479,9.05944159 L13.8258929,10.7398966 L18.6032033,10.7394543 L18.6030559,5.96273366 L17.0987847,7.4670048 C14.4604497,4.83574664 10.1878066,4.83751585 7.55183056,7.4734919 C4.91423273,10.1110897 4.91423273,14.3890405 7.55183056,17.0266383 C10.1895758,19.6643836 14.4675266,19.6643836 17.1051244,17.0267857 L15.5132773,15.4349387 Z" id="icon" sketch:type="MSShapeGroup"></path>
            </g>
        </g>
    </g>
</svg>