<?xml version="1.0" encoding="UTF-8" standalone="no"?>
<svg width="23px" height="23px" viewBox="0 0 23 23" version="1.1" xmlns="http://www.w3.org/2000/svg" xmlns:xlink="http://www.w3.org/1999/xlink" xmlns:sketch="http://www.bohemiancoding.com/sketch/ns">
    <!-- Generator: Sketch 3.4.4 (17249) - http://www.bohemiancoding.com/sketch -->
    <title>configure</title>
    <desc>Created with Sketch.</desc>
    <defs></defs>
    <g id="Page-1" stroke="none" stroke-width="1" fill="none" fill-rule="evenodd" sketch:type="MSPage">
        <g sketch:type="MSArtboardGroup" transform="translate(-382.000000, -385.000000)" id="configure" fill="#009CFF">
            <g sketch:type="MSLayerGroup" transform="translate(382.000000, 384.000000)">
                <path d="M22.3771936,13.5703259 L22.3771936,10.9296741 L19.2235343,10.2703259 C19.0276528,9.51287407 18.7346454,8.77954074 18.3197417,8.11856296 L20.0790899,5.40555556 L18.221638,3.5481037 L15.5086306,5.30745185 C14.8489565,4.91666667 14.1156232,4.59823704 13.3568676,4.40365926 L12.6975195,1.25 L10.0568676,1.25 L9.39751949,4.40365926 C8.64006764,4.59954074 7.9067343,4.89254815 7.24575652,5.30745185 L4.53274912,3.5481037 L2.67529726,5.40555556 L4.43464541,8.11856296 C4.04386023,8.77823704 3.7254306,9.51157037 3.53085282,10.2703259 L0.377193561,10.9296741 L0.377193561,13.5703259 L3.53085282,14.2296741 C3.7267343,14.9871259 4.01974171,15.7204593 4.43464541,16.381437 L2.67529726,19.0944444 L4.53274912,20.9518963 L7.24575652,19.1925481 C7.9054306,19.5833333 8.63876393,19.901763 9.39751949,20.0963407 L10.0568676,23.25 L12.6975195,23.25 L13.3568676,20.0963407 C14.1143195,19.9004593 14.8476528,19.6074519 15.5086306,19.1925481 L18.221638,20.9518963 L20.0790899,19.0944444 L18.3197417,16.381437 C18.7105269,15.721763 19.0289565,14.9884296 19.2235343,14.2296741 L22.3771936,13.5703259 Z M11.3771936,15.8684296 C9.37340097,15.8684296 7.75876393,14.2550963 7.75876393,12.25 C7.75876393,10.2462074 9.37209726,8.63157037 11.3771936,8.63157037 C13.3809862,8.63157037 14.9956232,10.2462074 14.9956232,12.25 C14.9956232,14.2537926 13.3809862,15.8684296 11.3771936,15.8684296 L11.3771936,15.8684296 Z" id="icon" sketch:type="MSShapeGroup" transform="translate(11.377194, 12.250000) rotate(-2.000000) translate(-11.377194, -12.250000) "></path>
            </g>
        </g>
    </g>
</svg>