<?xml version="1.0" encoding="UTF-8"?>
<svg width="23px" height="23px" viewBox="0 0 23 23" version="1.1" xmlns="http://www.w3.org/2000/svg" xmlns:xlink="http://www.w3.org/1999/xlink">
    <!-- Generator: Sketch 49.3 (51167) - http://www.bohemiancoding.com/sketch -->
    <title>password</title>
    <desc>Created with Sketch.</desc>
    <defs></defs>
    <g id="Page-1" stroke="none" stroke-width="1" fill="none" fill-rule="evenodd">
        <g transform="translate(-136.000000, -268.000000)" fill="#009CFF" id="password">
            <g transform="translate(136.000000, 268.000000)">
                <path d="M11.5001762,0 C5.14975868,0 0,5.14827016 0,11.5 C0,17.8499678 5.14834904,23 11.5001762,23 C17.8502413,23 23,17.8513774 23,11.5 C23,5.14967977 17.851651,0 11.5001762,0 L11.5001762,0 Z M14.5421742,18.2918825 L8.45923542,18.2918825 L9.95133686,11.0168541 C8.88459358,10.4579413 8.1547537,9.34152545 8.1547537,8.05454601 C8.1547537,6.2068918 9.65249368,4.70917476 11.5001762,4.70917476 C13.3475063,4.70917476 14.8466559,6.2068918 14.8466559,8.05454601 C14.8466559,9.34293507 14.1168161,10.459351 13.0500728,11.0168541 L14.5421742,18.2918825 Z" id="icon"></path>
            </g>
        </g>
    </g>
</svg>