<?xml version="1.0" encoding="UTF-8"?>
<svg width="35px" height="35px" viewBox="0 0 35 35" version="1.1" xmlns="http://www.w3.org/2000/svg" xmlns:xlink="http://www.w3.org/1999/xlink">
    <!-- Generator: Sketch 58 (84663) - https://sketch.com -->
    <title>menu</title>
    <desc>Created with Sketch.</desc>
    <g id="Page-1" stroke="none" stroke-width="1" fill="none" fill-rule="evenodd">
        <g id="menu" transform="translate(0.000000, 0.500000)">
            <circle id="Oval" fill="#009CFF" cx="17.2305589" cy="17.2305589" r="17.2305589"></circle>
            <path d="M24.8322993,22.4485681 C25.6607264,22.4485681 26.3322993,23.1201409 26.3322993,23.9485681 C26.3322993,24.7769952 25.6607264,25.4485681 24.8322993,25.4485681 L9.62881851,25.4485681 C8.80039139,25.4485681 8.12881851,24.7769952 8.12881851,23.9485681 C8.12881851,23.1201409 8.80039139,22.4485681 9.62881851,22.4485681 L24.8322993,22.4485681 Z M24.8322993,15.7305589 C25.6607264,15.7305589 26.3322993,16.4021318 26.3322993,17.2305589 C26.3322993,18.058986 25.6607264,18.7305589 24.8322993,18.7305589 L9.62881851,18.7305589 C8.80039139,18.7305589 8.12881851,18.058986 8.12881851,17.2305589 C8.12881851,16.4021318 8.80039139,15.7305589 9.62881851,15.7305589 L24.8322993,15.7305589 Z M24.8322993,9.01254972 C25.6607264,9.01254972 26.3322993,9.68412259 26.3322993,10.5125497 C26.3322993,11.3409768 25.6607264,12.0125497 24.8322993,12.0125497 L9.62881851,12.0125497 C8.80039139,12.0125497 8.12881851,11.3409768 8.12881851,10.5125497 C8.12881851,9.68412259 8.80039139,9.01254972 9.62881851,9.01254972 L24.8322993,9.01254972 Z" id="Combined-Shape" fill="#FFFFFF"></path>
        </g>
    </g>
</svg>