<?xml version="1.0" encoding="UTF-8" standalone="no"?>
<svg width="22px" height="22px" viewBox="0 0 22 22" version="1.1" xmlns="http://www.w3.org/2000/svg" xmlns:xlink="http://www.w3.org/1999/xlink" xmlns:sketch="http://www.bohemiancoding.com/sketch/ns">
    <!-- Generator: Sketch 3.4.4 (17249) - http://www.bohemiancoding.com/sketch -->
    <title>zoom</title>
    <desc>Created with Sketch.</desc>
    <defs></defs>
    <g id="Page-1" stroke="none" stroke-width="1" fill="none" fill-rule="evenodd" sketch:type="MSPage">
        <g sketch:type="MSArtboardGroup" transform="translate(-542.000000, -385.000000)" id="zoom" fill="#009CFF">
            <g sketch:type="MSLayerGroup" transform="translate(542.000000, 385.000000)">
                <path d="M2.29580058,2.29580058 C3.77757688,0.816369334 5.74477782,0 7.8389044,0 C9.93332411,0 11.9016976,0.815196811 13.3808357,2.29580058 C14.8614395,3.77523183 15.6778088,5.74477782 15.6766363,7.83773187 C15.6766363,9.07679585 15.3858505,10.2674932 14.8456104,11.3438696 L21.259899,17.7596239 C22.2263513,18.7272487 22.2263513,20.2934467 21.259899,21.2610715 C20.7768194,21.7432717 20.1436568,21.9848115 19.5093217,21.9848115 C18.8761592,21.9848115 18.2427035,21.7432717 17.7596239,21.2610715 L11.3462147,14.8456104 C10.2698383,15.384678 9.0791409,15.6766363 7.84007692,15.6766363 C5.74595034,15.6766363 3.77757688,14.8614395 2.29697311,13.3808357 C0.815196811,11.9016976 0,9.93215158 0,7.83773187 C0,5.74477782 0.816369334,3.77640436 2.29580058,2.29580058 Z M10.8888412,10.8879597 C11.7453695,10.0314314 12.2173101,8.89203192 12.2173101,7.67934972 C12.2184826,6.46784004 11.7453695,5.32873367 10.8888412,4.47103289 C10.0314336,3.61450463 8.8920341,3.14285714 7.68052442,3.14285714 C6.46784221,3.14285714 5.32873585,3.61450463 4.47103506,4.47103289 C3.61333428,5.32873367 3.14285932,6.46784004 3.14285932,7.68052224 C3.1416868,8.89320444 3.61450681,10.0326039 4.46986254,10.8891322 C5.32756332,11.7465398 6.46666969,12.2184805 7.67935189,12.2184805 C8.89086157,12.2184805 10.0302611,11.7453673 10.8888412,10.8879597 Z" id="icon" sketch:type="MSShapeGroup"></path>
            </g>
        </g>
    </g>
</svg>