<?xml version="1.0" encoding="UTF-8"?>
<svg width="20px" height="22px" viewBox="0 0 20 22" version="1.1" xmlns="http://www.w3.org/2000/svg" xmlns:xlink="http://www.w3.org/1999/xlink">
    <!-- Generator: Sketch 55.1 (78136) - https://sketchapp.com -->
    <title>user</title>
    <desc>Created with Sketch.</desc>
    <g id="Page-1" stroke="none" stroke-width="1" fill="none" fill-rule="evenodd">
        <g transform="translate(-330.000000, -177.000000)" fill="#009CFF" id="user">
            <g transform="translate(330.696552, 177.000000)">
                <path d="M1.04805054e-13,20.0977982 L1.04805054e-13,16.5133405 C1.04805054e-13,13.7742738 2.43538849,11.0352071 6.01684215,10.1221849 C6.01684215,10.1221849 6.71522561,11.8975059 9.40131585,11.8975059 C11.1920427,11.8975059 12.5350878,10.1221849 12.5350878,10.1221849 C16.1165415,11.0352071 18.8026317,13.7742738 18.8026317,16.5133405 L18.8026317,20.1316139 L18.8026317,20.0977982 C14.5583066,20.9630815 11.3750628,21.3957231 9.25290026,21.3957231 C7.13073771,21.3957231 4.04643763,20.9630815 1.04805054e-13,20.0977982 Z M9.29063597,9.27272727 C6.75636246,9.27272727 4.70192786,7.19695657 4.70192786,4.63636364 C4.70192786,2.07577071 6.75636246,-3.55271368e-14 9.29063597,-3.55271368e-14 C11.8249095,-3.55271368e-14 13.8793441,2.07577071 13.8793441,4.63636364 C13.8793441,7.19695657 11.8249095,9.27272727 9.29063597,9.27272727 Z" id="icon"></path>
            </g>
        </g>
    </g>
</svg>