<?xml version="1.0" encoding="UTF-8"?>
<svg width="31px" height="18px" viewBox="0 0 31 18" version="1.1" xmlns="http://www.w3.org/2000/svg" xmlns:xlink="http://www.w3.org/1999/xlink">
    <!-- Generator: Sketch 50.2 (55047) - http://www.bohemiancoding.com/sketch -->
    <title>trend</title>
    <desc>Created with Sketch.</desc>
    <defs></defs>
    <g id="Page-1" stroke="none" stroke-width="1" fill="none" fill-rule="evenodd">
        <g transform="translate(-208.000000, -201.000000)" fill="#009CFF" fill-rule="nonzero" id="trend">
            <g transform="translate(208.000000, 201.000000)">
                <path d="M27.2287717,0.687200674 L27.2095866,0.687200674 C25.2409018,0.679821837 23.6337729,2.25892961 23.6086869,4.22761437 C23.6086869,4.89613376 23.7975876,5.55139232 24.1561966,6.11662083 L20.6054689,10.6502363 C20.3221179,10.5779214 20.0328732,10.5395519 19.7406439,10.5366013 L19.7214584,10.5366013 C19.379076,10.538077 19.038167,10.5867771 18.7090643,10.684178 L14.6847249,5.52038995 C15.2351814,4.19219172 14.9297064,2.66474109 13.9114035,1.6509491 C12.5094207,0.257806837 10.2514534,0.244508231 8.8333763,1.621433 C7.63355495,2.78434316 7.41220117,4.63054474 8.30505897,6.04435274 L4.75727815,10.5779683 C4.47392718,10.5056533 4.18320908,10.468761 3.89245321,10.4658066 C2.94058285,10.455476 2.02411248,10.8229459 1.34524133,11.4885147 C0.663423339,12.1511404 0.276781496,13.0602436 0.270850016,14.0106406 C0.264946493,14.9610375 0.641272849,15.8730876 1.31569727,16.5445538 C1.98716351,17.2174935 2.89921361,17.596806 3.84961054,17.5982794 L3.86879567,17.5982794 C5.84046506,17.607134 7.4490674,16.0221302 7.46969535,14.0504986 C7.47854988,13.2255317 7.19815067,12.422704 6.67570816,11.7836909 L10.0493604,7.47751172 C10.4581414,7.63394412 10.8920461,7.71658815 11.3303334,7.71806536 L11.3495186,7.71806536 C11.9841114,7.7239685 12.6083525,7.56310638 13.1588467,7.25023401 L16.8424093,11.9874844 C16.3819451,12.5940444 16.1296116,13.3334015 16.1251914,14.0963712 C16.1266674,16.0695141 17.7220063,17.6707115 19.6951113,17.6810632 L19.7142965,17.6810632 C21.6844546,17.6869664 23.2916213,16.1034406 23.3137227,14.1332824 C23.3240533,13.3083155 23.0436552,12.5054878 22.5212089,11.8664747 L25.8992814,7.56029554 C26.306589,7.71968234 26.7404938,7.80232638 27.1787811,7.80527701 L27.1979662,7.80527701 C29.1681244,7.81118015 30.7693596,6.21881382 30.7737799,4.24861785 C30.779683,2.27845967 29.1873167,0.678697878 27.2171207,0.672804178 L27.2287717,0.687200674 Z" id="icon"></path>
            </g>
        </g>
    </g>
</svg>