<?xml version="1.0" encoding="UTF-8"?>
<svg width="29px" height="28px" viewBox="0 0 29 28" version="1.1" xmlns="http://www.w3.org/2000/svg" xmlns:xlink="http://www.w3.org/1999/xlink">
    <!-- Generator: Sketch 46.2 (44496) - http://www.bohemiancoding.com/sketch -->
    <title>library</title>
    <desc>Created with Sketch.</desc>
    <defs></defs>
    <g id="Page-1" stroke="none" stroke-width="1" fill="none" fill-rule="evenodd">
        <g transform="translate(-86.000000, -625.000000)" id="library" fill-rule="nonzero" fill="#009CFF">
            <g transform="translate(86.500000, 625.000000)">
                <path d="M5.86063913,7.94970076 C5.99600126,7.94970076 6.10492447,8.05862397 6.10492447,8.1939861 L6.10492447,27.2407925 C6.10492447,27.3761547 5.99494273,27.4850779 5.86063913,27.4850779 L0.244193297,27.4850779 C0.108831159,27.4850779 -9.20462538e-05,27.3750961 -9.20462538e-05,27.2407925 L-9.20462538e-05,8.1939861 C-9.20462538e-05,8.05862397 0.108831159,7.94970076 0.244193297,7.94970076 L5.86063913,7.94970076 Z M14.5759548,0.94970076 C14.7113169,0.94970076 14.8202401,1.05862397 14.8202401,1.1939861 L14.8202401,27.2407925 C14.8202401,27.3761547 14.7113169,27.4850779 14.5759548,27.4850779 L8.95950896,27.4850779 C8.82414682,27.4850779 8.71522362,27.3750961 8.71522362,27.2407925 L8.71522362,1.1939861 C8.71522362,1.05862397 8.82414682,0.94970076 8.95950896,0.94970076 L14.5759548,0.94970076 Z M23.4277155,7.27072428 L28.3578753,25.6704726 C28.3927716,25.8005556 28.3155746,25.9348592 28.1854997,25.9697583 L22.760456,27.4238455 C22.6303729,27.457686 22.4960693,27.380489 22.4611703,27.2504141 L17.5310105,8.85172156 C17.4961114,8.72058001 17.5733111,8.58733494 17.703386,8.55243587 L23.1284298,7.09834871 C23.2585128,7.06345236 23.3928164,7.14064938 23.4277155,7.27072428 Z" id="icon"></path>
            </g>
        </g>
    </g>
</svg>