<?xml version="1.0" encoding="UTF-8"?>
<svg width="26px" height="21px" viewBox="0 0 26 21" version="1.1" xmlns="http://www.w3.org/2000/svg" xmlns:xlink="http://www.w3.org/1999/xlink">
    <!-- Generator: Sketch 52.6 (67491) - http://www.bohemiancoding.com/sketch -->
    <title>dash</title>
    <desc>Created with Sketch.</desc>
    <g id="Page-1" stroke="none" stroke-width="1" fill="none" fill-rule="evenodd">
        <g transform="translate(-283.000000, -680.000000)" fill="#009CFF" fill-rule="nonzero" id="dash">
            <g transform="translate(283.653443, 680.000000)">
                <path d="M21.6651205,21 L3.33565144,21 C1.2656872,18.7692528 0,15.7816062 0,12.4983324 C0,5.59715181 5.5973009,1.77635684e-15 12.5008331,1.77635684e-15 C19.4026991,2.9526956e-16 25,5.59506737 25,12.4983324 C25,15.7816062 23.7346895,18.7692528 21.6651205,21 Z M10.0908031,10.8205339 L10.0907697,10.8205004 C8.95053572,11.9617231 8.95194134,13.8078065 10.090842,14.9476948 C11.2297428,16.0875831 13.0769732,16.08899 14.215834,14.9491417 C14.8485383,14.3158887 15.1277506,13.4637413 15.0575947,12.6363981 C15.0534635,12.5854627 15.0479629,12.5331497 15.0410849,12.4822139 C15.003914,11.9852513 15.1786033,11.4745057 15.5582118,11.094568 L19.0146528,7.63512986 C19.3626437,7.18773486 19.3282624,6.53935487 18.9169849,6.12772071 C18.4685586,5.67890556 17.7464412,5.68030256 17.299439,6.12769231 L17.2939371,6.12218564 L13.9420373,9.47699201 C13.5624288,9.85692969 13.0535059,10.0303679 12.5555936,9.99456739 C12.5033255,9.98630574 12.4524353,9.98217413 12.401543,9.97804322 C11.5748814,9.90786182 10.7235075,10.1872809 10.0908031,10.8205339 Z" id="icon"></path>
            </g>
        </g>
    </g>
</svg>