<?xml version="1.0" encoding="UTF-8"?>
<svg width="26px" height="19px" viewBox="0 0 26 19" version="1.1" xmlns="http://www.w3.org/2000/svg" xmlns:xlink="http://www.w3.org/1999/xlink">
    <!-- Generator: Sketch 42 (36781) - http://www.bohemiancoding.com/sketch -->
    <title>table</title>
    <desc>Created with Sketch.</desc>
    <defs></defs>
    <g id="Page-1" stroke="none" stroke-width="1" fill="none" fill-rule="evenodd">
        <g transform="translate(-405.000000, -213.000000)" id="table" fill="#009CFF">
            <g transform="translate(405.500000, 213.000000)">
                <path d="M0,2.22986125 C0,1.35725132 0.712991514,0.649861207 1.58483321,0.649861207 L9.81309592,0.649861207 C10.6883751,0.649861207 11.3979291,1.35116765 11.3979291,2.22986125 C11.3979291,3.10247118 10.6849376,3.80986129 9.81309592,3.80986129 L1.58483321,3.80986129 C0.709553997,3.80986129 0,3.10855485 0,2.22986125 Z M13.6243461,2.22986125 C13.6243461,1.35725132 14.3373376,0.649861207 15.2091793,0.649861207 L23.437442,0.649861207 C24.3127212,0.649861207 25.0222752,1.35116765 25.0222752,2.22986125 C25.0222752,3.10247118 24.3092837,3.80986129 23.437442,3.80986129 L15.2091793,3.80986129 C14.3339001,3.80986129 13.6243461,3.10855485 13.6243461,2.22986125 Z M0,9.57831285 C0,8.70570292 0.712991514,7.9983128 1.58483321,7.9983128 L9.81309592,7.9983128 C10.6883751,7.9983128 11.3979291,8.69961924 11.3979291,9.57831285 C11.3979291,10.4509228 10.6849376,11.1583129 9.81309592,11.1583129 L1.58483321,11.1583129 C0.709553997,11.1583129 0,10.4570065 0,9.57831285 Z M13.6243461,9.57831285 C13.6243461,8.70570292 14.3373376,7.9983128 15.2091793,7.9983128 L23.437442,7.9983128 C24.3127212,7.9983128 25.0222752,8.69961924 25.0222752,9.57831285 C25.0222752,10.4509228 24.3092837,11.1583129 23.437442,11.1583129 L15.2091793,11.1583129 C14.3339001,11.1583129 13.6243461,10.4570065 13.6243461,9.57831285 Z M0,16.8282857 C0,15.9556758 0.712991514,15.2482856 1.58483321,15.2482856 L9.81309592,15.2482856 C10.6883751,15.2482856 11.3979291,15.9495921 11.3979291,16.8282857 C11.3979291,17.7008956 10.6849376,18.4082857 9.81309592,18.4082857 L1.58483321,18.4082857 C0.709553997,18.4082857 0,17.7069793 0,16.8282857 Z M13.6243461,16.8282857 C13.6243461,15.9556758 14.3373376,15.2482856 15.2091793,15.2482856 L23.437442,15.2482856 C24.3127212,15.2482856 25.0222752,15.9495921 25.0222752,16.8282857 C25.0222752,17.7008956 24.3092837,18.4082857 23.437442,18.4082857 L15.2091793,18.4082857 C14.3339001,18.4082857 13.6243461,17.7069793 13.6243461,16.8282857 Z" id="icon"></path>
            </g>
        </g>
    </g>
</svg>