<?xml version="1.0" encoding="UTF-8"?>
<svg width="26px" height="26px" viewBox="0 0 26 26" version="1.1" xmlns="http://www.w3.org/2000/svg" xmlns:xlink="http://www.w3.org/1999/xlink">
    <!-- Generator: Sketch 50 (54983) - http://www.bohemiancoding.com/sketch -->
    <title>goal</title>
    <desc>Created with Sketch.</desc>
    <defs></defs>
    <g id="Page-1" stroke="none" stroke-width="1" fill="none" fill-rule="evenodd">
        <g transform="translate(-273.000000, -723.000000)" fill="#019CFF" fill-rule="nonzero" id="goal">
            <g transform="translate(273.000000, 723.000000)">
                <path d="M13,0.111463426 C9.68489583,0.111463426 6.50572917,1.42880718 4.16119792,3.77266134 C1.81744792,6.11742697 0.5,9.29635926 0.5,12.6114634 C0.5,15.9265676 1.81734375,19.1057343 4.16119792,21.4502655 C6.50596354,23.7940155 9.68489583,25.1114634 13,25.1114634 C16.3151042,25.1114634 19.4942708,23.7941197 21.8388021,21.4502655 C24.1825521,19.1054999 25.5,15.9265676 25.5,12.6114634 C25.4969482,9.29714051 24.1785937,6.12031759 21.8348958,3.77656759 C19.4911979,1.43281759 16.3143229,0.114588426 13,0.111463426 Z M13,21.9864634 C10.5138281,21.9864634 8.12942708,20.998703 6.37057292,19.2408905 C4.61276042,17.4820624 3.625,15.0976613 3.625,12.6114634 C3.625,10.1252655 4.61276042,7.74089051 6.37057292,5.98203634 C8.12940104,4.22422384 10.5138021,3.23646343 13,3.23646343 C15.4861979,3.23646343 17.8705729,4.22422384 19.6294271,5.98203634 C21.3872396,7.74086447 22.375,10.1252655 22.375,12.6114634 C22.375,15.0976613 21.3872396,17.4820363 19.6294271,19.2408905 C17.870599,20.998703 15.4861979,21.9864634 13,21.9864634 Z M13,6.36146343 C11.3428906,6.36146343 9.75286458,7.01961447 8.58098958,8.19250509 C7.40809896,9.36438009 6.74994792,10.9542238 6.74994792,12.6115155 C6.74994792,14.2688072 7.40809896,15.8586509 8.58098958,17.0305259 C9.75286458,18.2034166 11.3427083,18.8615676 13,18.8615676 C14.6572917,18.8615676 16.2471354,18.2034166 17.4190104,17.0305259 C18.591901,15.8586509 19.2500521,14.2688072 19.2500521,12.6115155 C19.2500521,10.9542238 18.591901,9.36438009 17.4190104,8.19250509 C16.2471354,7.01961447 14.6572917,6.36146343 13,6.36146343 Z M13,15.7364634 C11.7355469,15.7364634 10.596224,14.975552 10.1130208,13.8077655 C9.62880208,12.639953 9.89634635,11.2951613 10.7905208,10.4020363 C11.6836719,9.50786968 13.0284896,9.24034363 14.19625,9.72453634 C15.3640625,10.2077395 16.1249479,11.3470624 16.1249479,12.6115155 C16.1249479,14.3377916 14.726224,15.7365155 12.9999479,15.7365155 L13,15.7364634 Z" id="icon"></path>
            </g>
        </g>
    </g>
</svg>