<?xml version="1.0" encoding="UTF-8" standalone="no"?>
<svg width="23px" height="23px" viewBox="0 0 23 23" version="1.1" xmlns="http://www.w3.org/2000/svg" xmlns:xlink="http://www.w3.org/1999/xlink">
    <!-- Generator: Sketch 3.7.2 (28276) - http://www.bohemiancoding.com/sketch -->
    <title>rew</title>
    <desc>Created with Sketch.</desc>
    <defs></defs>
    <g id="Page-1" stroke="none" stroke-width="1" fill="none" fill-rule="evenodd">
        <g transform="translate(-258.000000, -373.000000)" id="rew" fill="#009CFF">
            <g transform="translate(269.500000, 384.500000) scale(1, -1) translate(-269.500000, -384.500000) translate(258.000000, 373.000000)">
                <path d="M19.6313415,3.36822222 C15.1408191,-1.12274074 7.8586698,-1.12274074 3.36814737,3.36822222 C-1.12271579,7.85884444 -1.12271579,15.1411556 3.36814737,19.6317778 C7.8586698,24.1227407 15.1408191,24.1227407 19.6313415,19.6317778 C24.1235676,15.1397926 24.1222047,7.85884444 19.6313415,3.36822222 Z M10.2022643,12.7210545 L3.85282032,12.7213423 C3.18042052,12.7213423 2.63150509,12.1724147 2.63150509,11.4999999 C2.63150509,10.8275852 3.18042052,10.2786576 3.85282032,10.2786576 L10.2002494,10.2786576 L7.53655598,7.61490498 C7.06219174,7.14053019 7.0619039,6.36247494 7.53655598,5.88781231 C8.01092023,5.41343752 8.78924603,5.41343752 9.26361027,5.88781231 L13.9974661,10.6217733 C14.1825487,10.805133 14.2896261,11.0152626 14.3379836,11.2346034 C14.3604353,11.3359261 14.3682071,11.417963 14.3684949,11.4988485 C14.3682071,11.579734 14.3604353,11.6617709 14.3437405,11.7417929 C14.2896261,11.9824345 14.1828366,12.1928519 14.0130096,12.3626827 C14.0086919,12.3670005 9.26361027,17.1098848 9.26361027,17.1098848 C8.79010955,17.5874259 8.01322297,17.5865623 7.53857088,17.1118997 C7.06420663,16.6375249 7.06420663,15.8591818 7.53857088,15.384807 L10.2022643,12.7210545 Z M16,6.78682612 C16,6.09382203 16.554831,5.53203122 17.25,5.53203122 C17.9403559,5.53203122 18.5,6.091717 18.5,6.78682612 L18.5,16.2131739 C18.5,16.906178 17.945169,17.4679688 17.25,17.4679688 C16.5596441,17.4679688 16,16.908283 16,16.2131739 L16,6.78682612 Z" id="icon" transform="translate(11.500000, 11.500000) scale(-1, 1) translate(-11.500000, -11.500000) "></path>
            </g>
        </g>
    </g>
</svg>