<?xml version="1.0" encoding="UTF-8"?>
<svg width="26px" height="19px" viewBox="0 0 26 19" version="1.1" xmlns="http://www.w3.org/2000/svg" xmlns:xlink="http://www.w3.org/1999/xlink">
    <!-- Generator: Sketch 42 (36781) - http://www.bohemiancoding.com/sketch -->
    <title>list</title>
    <desc>Created with Sketch.</desc>
    <defs></defs>
    <g id="Page-1" stroke="none" stroke-width="1" fill="none" fill-rule="evenodd">
        <g transform="translate(-392.000000, -218.000000)" id="list" fill-rule="nonzero" fill="#009CFF">
            <g transform="translate(392.000000, 218.000000)">
                <path d="M23.7695748,8.00194229 L23.7695748,8.00194229 C24.6425007,8.00194229 25.3477601,8.70720174 25.3477601,9.58012759 C25.3477601,10.4530534 24.6425007,11.1583129 23.7695748,11.1583129 L8.18510023,11.1583129 C7.31217438,11.1583129 6.60691493,10.4530534 6.60691493,9.58012759 C6.60691493,8.70720174 7.31217438,8.00194229 8.18510023,8.00194229 L23.7695748,8.00194229 Z M4.20849413,9.58012759 C4.20849413,12.1693194 0.325484936,12.1693194 0.325484936,9.58012759 C0.325484936,6.99093575 4.20849413,6.99093575 4.20849413,9.58012759 Z M19.7695748,3.80986129 L8.18510023,3.80986129 C7.31217438,3.80986129 6.60691493,3.10460185 6.60691493,2.23167599 C6.60691493,1.35875014 7.31217438,0.653490697 8.18510023,0.653490697 L19.7695748,0.653490697 C20.6425007,0.653490697 21.3477601,1.35875014 21.3477601,2.23167599 C21.3477601,3.10460185 20.6425007,3.80986129 19.7695748,3.80986129 Z M4.20849413,2.23167599 C4.20849413,4.82086784 0.325484936,4.82086784 0.325484936,2.23167599 C0.325484936,-0.357515848 4.20849413,-0.357515848 4.20849413,2.23167599 Z M8.18510023,15.2519151 L15.7695748,15.2519151 C16.6425007,15.2519151 17.3477601,15.9571746 17.3477601,16.8301004 C17.3477601,17.7030263 16.6425007,18.4082857 15.7695748,18.4082857 L8.18510023,18.4082857 C7.31217438,18.4082857 6.60691493,17.7030263 6.60691493,16.8301004 C6.60691493,15.9571746 7.31217438,15.2519151 8.18510023,15.2519151 Z M4.20849413,16.8301004 C4.20849413,19.4192923 0.325484936,19.4192923 0.325484936,16.8301004 C0.325484936,14.2409086 4.20849413,14.2409086 4.20849413,16.8301004 Z" id="icon"></path>
            </g>
        </g>
    </g>
</svg>