<?xml version="1.0" encoding="UTF-8" standalone="no"?>
<svg width="23px" height="23px" viewBox="0 0 23 23" version="1.1" xmlns="http://www.w3.org/2000/svg" xmlns:xlink="http://www.w3.org/1999/xlink">
    <!-- Generator: Sketch 3.7.2 (28276) - http://www.bohemiancoding.com/sketch -->
    <title>copy</title>
    <desc>Created with Sketch.</desc>
    <defs></defs>
    <g id="Page-1" stroke="none" stroke-width="1" fill="none" fill-rule="evenodd">
        <g transform="translate(-405.000000, -373.000000)" id="copy" fill="#009CFF">
            <g transform="translate(405.000000, 373.000000)">
                <path d="M19.6313415,3.36814737 C15.1408191,-1.12271579 7.8586698,-1.12271579 3.36814737,3.36814737 C-1.12271579,7.8586698 -1.12271579,15.1408191 3.36814737,19.6313415 C7.8586698,24.1222047 15.1408191,24.1222047 19.6313415,19.6313415 C24.1235676,15.1394561 24.1222047,7.8586698 19.6313415,3.36814737 Z M14.2741861,10.4523517 L8.37044118,16.3565037 C7.89498272,16.8319622 7.11869909,16.8319622 6.64324063,16.3565037 C6.16778217,15.8810453 6.16778217,15.1047616 6.64324063,14.6293032 L12.5457643,8.72677947 L8.778733,8.72677947 C8.10788065,8.72677947 7.5575212,8.17682709 7.5575212,7.50556767 C7.5575212,6.83471532 8.10788065,6.28435587 8.778733,6.28435587 L15.4734161,6.28435587 C15.7339413,6.28313466 15.9582372,6.3560003 16.147525,6.47690027 C16.2350452,6.53266894 16.2985482,6.58518104 16.3559451,6.64217093 C16.412935,6.69956788 16.4654471,6.7630709 16.5102249,6.83145876 C16.6421158,7.0398789 16.7153885,7.2641748 16.7153885,7.50434646 C16.7153885,7.51045252 16.7137602,14.2193831 16.7137602,14.2193831 C16.7166097,14.8918637 16.1666573,15.4405949 15.4953979,15.4405949 C14.8245455,15.4405949 14.2741861,14.8902354 14.2741861,14.2193831 L14.2741861,10.4523517 Z" id="icon"></path>
            </g>
        </g>
    </g>
</svg>