<?xml version="1.0" encoding="UTF-8" standalone="no"?>
<svg width="24px" height="22px" viewBox="0 0 24 22" version="1.1" xmlns="http://www.w3.org/2000/svg" xmlns:xlink="http://www.w3.org/1999/xlink">
    <!-- Generator: Sketch 40.3 (33839) - http://www.bohemiancoding.com/sketch -->
    <title>video</title>
    <desc>Created with Sketch.</desc>
    <defs></defs>
    <g id="Page-1" stroke="none" stroke-width="1" fill="none" fill-rule="evenodd">
        <g transform="translate(-440.000000, -499.000000)" id="video" fill="#009CFF">
            <g transform="translate(440.000000, 499.000000)">
                <path d="M20.3984806,0.437988293 C12.8856077,-0.145996098 11.1143923,-0.145996098 3.60151942,0.437988293 C1.86310437,0.572606829 0.629556432,2.14251902 0.437256728,4.20118829 C-0.145752243,10.4605678 -0.145752243,11.5153346 0.437256728,17.7747141 C0.629556432,19.8333834 1.86406908,21.4032956 3.60151942,21.5379141 C11.1143923,22.1218985 12.886894,22.1218985 20.3984806,21.5379141 C22.1359309,21.4032956 23.3704436,19.8333834 23.5627433,17.7747141 C24.1457522,11.5153346 24.1457522,10.4605678 23.5627433,4.20118829 C23.3704436,2.14251902 22.1368956,0.574136585 20.3984806,0.437988293 Z M17.0536413,11.52872 L9.32416621,16.1868273 C9.12415061,16.307678 8.84458768,16.3107376 8.64151256,16.1956234 C8.43843743,16.0805093 8.27398865,15.8804937 8.27398865,15.6460585 L8.27398865,6.3298439 C8.27398865,6.09693854 8.43843743,5.89539317 8.64151256,5.78027902 C8.84458768,5.66516488 9.1015867,5.66822439 9.30198475,5.78907512 L17.0417857,10.4471824 C17.2375945,10.5653561 17.353856,10.7607824 17.353856,10.9879512 C17.353856,11.21512 17.2479204,11.4120761 17.0536413,11.52872 L17.0536413,11.52872 Z" id="icon"></path>
            </g>
        </g>
    </g>
</svg>