<?xml version="1.0" encoding="UTF-8"?>
<svg width="25px" height="24px" viewBox="0 0 25 24" version="1.1" xmlns="http://www.w3.org/2000/svg" xmlns:xlink="http://www.w3.org/1999/xlink">
    <!-- Generator: Sketch 55.2 (78181) - https://sketchapp.com -->
    <title>calendar</title>
    <desc>Created with Sketch.</desc>
    <g id="Page-1" stroke="none" stroke-width="1" fill="none" fill-rule="evenodd">
        <path d="M1.76208061,24 C1.08203096,24 0.1,23.446304 0.1,22.7683089 L0.1,4.89337842 C0.1,4.21332877 0.651641484,3.66168728 1.33169114,3.66168728 L5.442807,3.66168728 L5.442807,1.6431109 C5.442807,0.736035612 6.17935625,0 7.08643154,0 C7.99299319,0 8.72954244,0.736035612 8.72954244,1.6431109 L8.72954244,3.66168728 L15.7187317,3.66168728 L15.7187317,1.6431109 C15.7187317,0.736035612 16.455281,0 17.3618426,0 C18.2689179,0 19.0054672,0.736035612 19.0054672,1.6431109 L19.0054672,3.66168728 L22.9510118,3.66168728 C23.6310615,3.66168728 24.182703,4.21332877 24.182703,4.89337842 L24.182703,22.7683089 C24.182703,23.4483585 23.633116,24 22.9510118,24 L1.76208061,24 Z M5.35524402,12.162337 C6.559975,12.162337 7.53660243,11.1857096 7.53660243,9.98097859 C7.53660243,8.77624761 6.559975,7.79962019 5.35524402,7.79962019 C4.15051304,7.79962019 3.17388562,8.77624761 3.17388562,9.98097859 C3.17388562,11.1857096 4.15051304,12.162337 5.35524402,12.162337 Z M12.1602602,12.162337 C13.3649912,12.162337 14.3416186,11.1857096 14.3416186,9.98097859 C14.3416186,8.77624761 13.3649912,7.79962019 12.1602602,7.79962019 C10.9555292,7.79962019 9.97890179,8.77624761 9.97890179,9.98097859 C9.97890179,11.1857096 10.9555292,12.162337 12.1602602,12.162337 Z M18.9274589,12.162337 C20.1321899,12.162337 21.1088173,11.1857096 21.1088173,9.98097859 C21.1088173,8.77624761 20.1321899,7.79962019 18.9274589,7.79962019 C17.722728,7.79962019 16.7461005,8.77624761 16.7461005,9.98097859 C16.7461005,11.1857096 17.722728,12.162337 18.9274589,12.162337 Z M12.1602602,19.7970914 C13.3649912,19.7970914 14.3416186,18.820464 14.3416186,17.615733 C14.3416186,16.411002 13.3649912,15.4343746 12.1602602,15.4343746 C10.9555292,15.4343746 9.97890179,16.411002 9.97890179,17.615733 C9.97890179,18.820464 10.9555292,19.7970914 12.1602602,19.7970914 Z M5.35524402,19.7970914 C6.559975,19.7970914 7.53660243,18.820464 7.53660243,17.615733 C7.53660243,16.411002 6.559975,15.4343746 5.35524402,15.4343746 C4.15051304,15.4343746 3.17388562,16.411002 3.17388562,17.615733 C3.17388562,18.820464 4.15051304,19.7970914 5.35524402,19.7970914 Z" id="calendar" fill="#009CFF"></path>
    </g>
</svg>