<?xml version="1.0" encoding="UTF-8" standalone="no"?>
<svg width="25px" height="20px" viewBox="0 0 25 20" version="1.1" xmlns="http://www.w3.org/2000/svg" xmlns:xlink="http://www.w3.org/1999/xlink">
    <!-- Generator: Sketch 41.2 (35397) - http://www.bohemiancoding.com/sketch -->
    <title>mail</title>
    <desc>Created with Sketch.</desc>
    <defs></defs>
    <g id="Page-1" stroke="none" stroke-width="1" fill="none" fill-rule="evenodd">
        <g transform="translate(-103.000000, -268.000000)" id="mail" fill="#009CFF">
            <g transform="translate(103.000000, 268.000000)">
                <path d="M0,2.99420208 C0,1.34054993 1.34410858,0 2.99075223,0 L22.0092478,0 C23.6609946,0 25,1.34331197 25,2.99420208 L25,17.0057979 C25,18.6594501 23.6558914,20 22.0092478,20 L2.99075223,20 C1.33900538,20 0,18.656688 0,17.0057979 L0,2.99420208 Z M3.54763676,4.25330109 C3.08553116,3.95084966 2.46573524,4.08027494 2.16328381,4.54238053 C1.86083238,5.00448612 1.99025765,5.62428205 2.45236324,5.92673347 L12.1701087,12.2870677 C12.5047055,12.5060636 12.9375984,12.5046659 13.270774,12.2835138 L22.9885194,5.83316235 C23.4486623,5.52773315 23.5740825,4.90711438 23.2686533,4.44697152 C22.9632241,3.98682866 22.3426053,3.86140845 21.8824625,4.16683765 L12.7138784,10.2526721 L3.54763676,4.25330109 Z" id="icon"></path>
            </g>
        </g>
    </g>
</svg>