<?xml version="1.0" encoding="UTF-8"?>
<svg width="26px" height="25px" viewBox="0 0 26 25" version="1.1" xmlns="http://www.w3.org/2000/svg" xmlns:xlink="http://www.w3.org/1999/xlink">
    <!-- Generator: Sketch 50 (54983) - http://www.bohemiancoding.com/sketch -->
    <title>schedule</title>
    <desc>Created with Sketch.</desc>
    <defs></defs>
    <g id="Page-1" stroke="none" stroke-width="1" fill="none" fill-rule="evenodd">
        <g transform="translate(-242.000000, -723.000000)" fill="#019CFF" fill-rule="nonzero" id="schedule">
            <g transform="translate(242.000000, 723.000000)">
                <path d="M25.5,12.5 C25.5,15.8137995 24.1820316,18.9937082 21.838941,21.338941 C19.4937618,23.6820316 16.3162096,25 13,25 C9.68411176,25 6.50414955,23.6820316 4.16105896,21.338941 C1.81587967,18.9937618 0.5,15.8140673 0.5,12.5 C0.5,9.18411176 1.81587967,6.00414955 4.16105896,3.66105896 C6.50414955,1.31587967 9.68379042,0 13,0 C16.3158882,0 19.4937082,1.31587967 21.838941,3.66105896 C24.1820316,6.00414955 25.5,9.18379042 25.5,12.5 Z M17.9646207,15.3117087 L14.5211076,11.8681957 L14.5211076,6.54394406 C14.5211076,5.7029486 13.839121,5.02305066 13.0002142,5.02305066 C12.1592188,5.02305066 11.4793208,5.7029486 11.4793208,6.54394406 L11.4793208,13.1319114 L15.8119229,17.4645136 C16.0859815,17.792964 16.4834661,17.9896176 16.9102567,18.0084319 C17.3370366,18.0293526 17.7533408,17.8682642 18.0545953,17.564921 C18.3579439,17.2636665 18.5190307,16.847373 18.5002003,16.4205824 C18.4792796,15.9938078 18.2826276,15.5962965 17.9541932,15.3222486 L17.9646207,15.3117087 Z" id="icon"></path>
            </g>
        </g>
    </g>
</svg>