<?xml version="1.0" encoding="UTF-8"?>
<svg width="24px" height="25px" viewBox="0 0 24 25" version="1.1" xmlns="http://www.w3.org/2000/svg" xmlns:xlink="http://www.w3.org/1999/xlink">
    <!-- Generator: Sketch 43.2 (39069) - http://www.bohemiancoding.com/sketch -->
    <title>note</title>
    <desc>Created with Sketch.</desc>
    <defs></defs>
    <g id="Page-1" stroke="none" stroke-width="1" fill="none" fill-rule="evenodd">
        <g transform="translate(-487.000000, -640.000000)" id="note" fill-rule="nonzero" fill="#009CFF">
            <g transform="translate(487.000000, 640.000000)">
                <path d="M0.632245262,3.22861153 C0.632245262,1.57667791 1.96823681,0.237521116 3.6390936,0.237521116 L20.6253969,0.237521116 C22.2860334,0.237521116 23.6322453,1.57929175 23.6322453,3.22861153 L23.6322453,21.2464307 C23.6322453,22.8983643 22.2962537,24.2375211 20.6253969,24.2375211 L3.6390936,24.2375211 C1.97845712,24.2375211 0.632245262,22.8957505 0.632245262,21.2464307 L0.632245262,3.22861153 Z M13.8720128,20.581951 L13.8720128,18.2073507 L4.74408589,18.2073507 L4.74408589,20.581951 L13.8720128,20.581951 Z M18.1957677,15.8327504 L18.1957677,13.4581502 L4.74408589,13.4581502 L4.74408589,15.8327504 L18.1957677,15.8327504 Z M13.8720128,11.0835499 L13.8720128,8.70894967 L4.74408589,8.70894967 L4.74408589,11.0835499 L13.8720128,11.0835499 Z M18.1957677,6.33434941 L18.1957677,3.95974915 L4.74408589,3.95974915 L4.74408589,6.33434941 L18.1957677,6.33434941 Z" id="icon"></path>
            </g>
        </g>
    </g>
</svg>