<?xml version="1.0" encoding="UTF-8"?>
<svg width="23px" height="21px" viewBox="0 0 23 21" version="1.1" xmlns="http://www.w3.org/2000/svg" xmlns:xlink="http://www.w3.org/1999/xlink">
    <!-- Generator: Sketch 42 (36781) - http://www.bohemiancoding.com/sketch -->
    <title>users</title>
    <desc>Created with Sketch.</desc>
    <defs></defs>
    <g id="Page-1" stroke="none" stroke-width="1" fill="none" fill-rule="evenodd">
        <g transform="translate(-511.000000, -477.000000)" id="users" fill="#009CFF">
            <g transform="translate(511.000000, 477.000000)">
                <path d="M1.23447807,20.3592162 C1.23447807,20.3592162 0.52050769,20.3592162 0.52050769,19.6320599 L0.52050769,16.7234346 C0.52050769,14.5419656 2.46250712,12.3604967 5.31838863,11.6333403 C5.31838863,11.6333403 5.87528553,13.0472554 8.01719666,13.0472554 C9.44513742,13.0472554 10.516093,11.6333403 10.516093,11.6333403 C13.3719745,12.3604967 15.5138856,14.5419656 15.5138856,16.7234346 L15.5138856,19.6320599 C15.5138856,20.3592162 14.7999153,20.3592162 14.7999153,20.3592162 L1.23447807,20.3592162 Z M8.01719666,10.5599375 C5.7734582,10.5599375 3.9545488,8.72213803 3.9545488,6.45509748 C3.9545488,4.18805692 5.7734582,2.35025743 8.01719666,2.35025743 C10.2609351,2.35025743 12.0798445,4.18805692 12.0798445,6.45509748 C12.0798445,8.72213803 10.2609351,10.5599375 8.01719666,10.5599375 Z M12.5095171,10.4161913 C12.5435812,8.9141349 13.8889381,7.4247131 15.8555772,6.92397311 C15.8555772,6.92397311 16.2440361,7.91023791 17.7381085,7.91023791 C18.7341568,7.91023791 19.4811931,6.92397311 19.4811931,6.92397311 C21.4732897,7.43119501 22.9673621,8.95286071 22.9673621,10.4745264 L22.9673621,12.503414 C22.9673621,13.0106359 22.469338,13.0106359 22.469338,13.0106359 L16.2801938,13.0106359 C15.4950812,11.8571676 14.1359441,10.8882197 12.5095171,10.4161913 Z M17.7381085,6.17522982 C16.1730073,6.17522982 14.904242,4.89328793 14.904242,3.31193248 C14.904242,1.73057702 16.1730073,0.448635131 17.7381085,0.448635131 C19.3032098,0.448635131 20.5719751,1.73057702 20.5719751,3.31193248 C20.5719751,4.89328793 19.3032098,6.17522982 17.7381085,6.17522982 Z" id="icon"></path>
            </g>
        </g>
    </g>
</svg>