<?xml version="1.0" encoding="UTF-8"?>
<svg width="70px" height="70px" viewBox="0 0 70 70" version="1.1" xmlns="http://www.w3.org/2000/svg" xmlns:xlink="http://www.w3.org/1999/xlink">
    <!-- Generator: Sketch 49.3 (51167) - http://www.bohemiancoding.com/sketch -->
    <title>note</title>
    <desc>Created with Sketch.</desc>
    <defs></defs>
    <g id="Page-1" stroke="none" stroke-width="1" fill="none" fill-rule="evenodd">
        <g id="Page-2" transform="translate(-157.000000, -449.000000)" fill="#304561" fill-rule="nonzero">
            <g id="note" transform="translate(157.000000, 449.000000)">
                <path d="M60.7886678,0.358188247 L26.2569552,0.358188247 C21.4880538,0.358188247 17.6240271,4.22221495 17.6240271,8.9911164 L17.6240271,56.4722212 C17.6240271,58.8552691 15.6906109,60.7886853 13.307563,60.7886853 C10.9245151,60.7886853 8.99109891,58.8552691 8.99109891,56.4722212 L8.99109891,30.5734368 C8.99109891,28.1903889 7.05768271,26.2569727 4.67463483,26.2569727 C2.29158696,26.2569727 0.358170757,28.1903889 0.358170757,30.5734368 L0.358170757,56.4722212 C0.358170757,59.9062561 1.72109429,63.1998621 4.15191103,65.6281609 C6.57992207,68.0589777 9.8734561,69.4219012 13.3078507,69.4219012 L58.6307235,69.4219012 C61.491532,69.4219012 64.2370909,68.2837935 66.2600738,66.260451 C68.2830566,64.2371084 69.421524,61.4915495 69.421524,58.6311007 L69.421524,8.99176387 C69.421524,4.22286241 65.5574973,0.358835717 60.7885959,0.358835717 L60.7886678,0.358188247 Z M48.9183916,56.4722212 L28.4151872,56.4722212 L28.4151872,49.9975251 L48.9183916,49.9975251 L48.9183916,56.4722212 Z M58.6304358,43.522829 L28.4151872,43.522829 L28.4151872,37.0481329 L58.6304358,37.0481329 L58.6304358,43.522829 Z M48.9183916,30.5734368 L28.4151872,30.5734368 L28.4151872,24.0987407 L48.9183916,24.0987407 L48.9183916,30.5734368 Z M58.6304358,17.6240445 L28.4151872,17.6240445 L28.4151872,11.1493484 L58.6304358,11.1493484 L58.6304358,17.6240445 Z" id="icon"></path>
            </g>
        </g>
    </g>
</svg>