<?xml version="1.0" encoding="UTF-8"?>
<svg width="95px" height="95px" viewBox="0 0 95 95" version="1.1" xmlns="http://www.w3.org/2000/svg" xmlns:xlink="http://www.w3.org/1999/xlink">
    <!-- Generator: Sketch 58 (84663) - https://sketch.com -->
    <title>feature_config</title>
    <desc>Created with Sketch.</desc>
    <g id="Page-1" stroke="none" stroke-width="1" fill="none" fill-rule="evenodd">
        <path d="M78.0370773,6.97260986 C78.4831534,6.97260986 78.8512665,7.3064094 78.9052598,7.73785172 L78.9120773,7.84760986 L78.9121018,33.2952991 C82.3367467,33.7255856 84.9858584,36.6481837 84.9858584,40.189515 C84.9858584,43.7308463 82.3367467,46.6534444 78.9121018,47.0837309 L78.9120773,86.955453 C78.9120773,87.4015291 78.5782777,87.7696422 78.1468354,87.8236355 L78.0370773,87.830453 C77.5910011,87.830453 77.2228881,87.4966535 77.1688948,87.0652111 L77.1620773,86.955453 L77.161761,47.0836942 C73.7372573,46.6532784 71.0882961,43.7307457 71.0882961,40.189515 C71.0882961,36.6482843 73.7372573,33.7257516 77.161761,33.2953357 L77.1620773,7.84760986 C77.1620773,7.36436071 77.5538281,6.97260986 78.0370773,6.97260986 Z M15.6370773,6.97260986 C16.0831534,6.97260986 16.4512665,7.3064094 16.5052598,7.73785172 L16.5120773,7.84760986 L16.5121018,63.1373914 C19.9367467,63.5676779 22.5858584,66.4902761 22.5858584,70.0316074 C22.5858584,73.5729387 19.9367467,76.4955368 16.5121018,76.9258233 L16.5120773,86.955453 C16.5120773,87.4387022 16.1203264,87.830453 15.6370773,87.830453 C15.1910011,87.830453 14.8228881,87.4966535 14.7688948,87.0652111 L14.7620773,86.955453 L14.761761,76.9257866 C11.3372573,76.4953708 8.68829614,73.5728381 8.68829614,70.0316074 C8.68829614,66.4903766 11.3372573,63.567844 14.761761,63.1374281 L14.7620773,7.84760986 C14.7620773,7.36436071 15.1538281,6.97260986 15.6370773,6.97260986 Z M36.4370773,6.97260986 C36.8831534,6.97260986 37.2512665,7.3064094 37.3052598,7.73785172 L37.3120773,7.84760986 L37.3121018,22.3718852 C40.7367467,22.8021716 43.3858584,25.7247698 43.3858584,29.2661011 C43.3858584,32.8074324 40.7367467,35.7300305 37.3121018,36.160317 L37.3120773,86.955453 C37.3120773,87.4387022 36.9203264,87.830453 36.4370773,87.830453 C35.9910011,87.830453 35.6228881,87.4966535 35.5688948,87.0652111 L35.5620773,86.955453 L35.561761,36.1602803 C32.1372573,35.7298645 29.4882961,32.8073318 29.4882961,29.2661011 C29.4882961,25.7248703 32.1372573,22.8023377 35.561761,22.3719218 L35.5620773,7.84760986 C35.5620773,7.36436071 35.9538281,6.97260986 36.4370773,6.97260986 Z M57.2370773,6.97260986 C57.6831534,6.97260986 58.0512665,7.3064094 58.1052598,7.73785172 L58.1120773,7.84760986 L58.1121018,50.9898292 C61.5367467,51.4201157 64.1858584,54.3427138 64.1858584,57.8840451 C64.1858584,61.4253764 61.5367467,64.3479745 58.1121018,64.778261 L58.1120773,86.955453 C58.1120773,87.4387022 57.7203264,87.830453 57.2370773,87.830453 C56.7910011,87.830453 56.4228881,87.4966535 56.3688948,87.0652111 L56.3620773,86.955453 L56.361761,64.7782243 C52.9372573,64.3478085 50.2882961,61.4252758 50.2882961,57.8840451 C50.2882961,54.3428143 52.9372573,51.4202817 56.361761,50.9898658 L56.3620773,7.84760986 C56.3620773,7.36436071 56.7538281,6.97260986 57.2370773,6.97260986 Z M15.6370773,64.8328262 C12.7658697,64.8328262 10.4382961,67.1603998 10.4382961,70.0316074 C10.4382961,72.9028149 12.7658697,75.2303885 15.6370773,75.2303885 C18.5082848,75.2303885 20.8358584,72.9028149 20.8358584,70.0316074 C20.8358584,67.1603998 18.5082848,64.8328262 15.6370773,64.8328262 Z M57.2370773,52.6852639 C54.3658697,52.6852639 52.0382961,55.0128375 52.0382961,57.8840451 C52.0382961,60.7552526 54.3658697,63.0828262 57.2370773,63.0828262 C60.1082848,63.0828262 62.4358584,60.7552526 62.4358584,57.8840451 C62.4358584,55.0128375 60.1082848,52.6852639 57.2370773,52.6852639 Z M78.0370773,34.9907338 C75.1658697,34.9907338 72.8382961,37.3183074 72.8382961,40.189515 C72.8382961,42.946239 74.9839557,45.2018173 77.6963325,45.3773077 C77.800985,45.3311959 77.9161672,45.3066719 78.0370773,45.3066719 C78.1579874,45.3066719 78.2731696,45.3311959 78.377921,45.3755413 C81.090492,45.2015091 83.2358584,42.9460507 83.2358584,40.189515 C83.2358584,37.3183074 80.9082848,34.9907338 78.0370773,34.9907338 Z M36.4370773,24.0673199 C33.5658697,24.0673199 31.2382961,26.3948935 31.2382961,29.2661011 C31.2382961,32.1373086 33.5658697,34.4648822 36.4370773,34.4648822 C39.3082848,34.4648822 41.6358584,32.1373086 41.6358584,29.2661011 C41.6358584,26.3948935 39.3082848,24.0673199 36.4370773,24.0673199 Z" id="Shape" fill="#283577" fill-rule="nonzero"></path>
    </g>
</svg>