<?xml version="1.0" encoding="UTF-8"?>
<svg width="95px" height="95px" viewBox="0 0 95 95" version="1.1" xmlns="http://www.w3.org/2000/svg" xmlns:xlink="http://www.w3.org/1999/xlink">
    <!-- Generator: Sketch 58 (84663) - https://sketch.com -->
    <title>feature_duration</title>
    <desc>Created with Sketch.</desc>
    <g id="Page-1" stroke="none" stroke-width="1" fill="none" fill-rule="evenodd">
        <path d="M36.372235,7.27525947 L59.497235,7.2785178 C60.0278017,7.2785178 60.457485,7.7081678 60.457485,8.2387678 C60.457485,8.73143685 60.0870215,9.13711976 59.6092701,9.19256084 L59.497235,9.1990178 L48.894735,9.1990178 L48.894735,19.4981845 C57.7689017,19.7490095 65.7959017,23.4402678 71.6780684,29.2898511 L71.7561934,29.3419345 L71.7561934,29.3419345 L71.8082767,29.4200595 L71.8082767,29.4200595 C77.8691934,35.5133928 81.6224434,43.9092261 81.6224434,53.1633928 C81.6224434,62.2429526 78.0065212,70.4958622 72.145557,76.5593484 L71.8049434,76.9067261 C71.7857184,76.9329178 71.7824684,76.9589595 71.7564267,76.9850011 L71.6815517,77.0338345 L71.6815517,77.0338345 C65.5882184,83.0980828 57.192385,86.8513328 47.934885,86.8513328 C38.6807184,86.8513328 30.2819684,83.0982495 24.1882184,77.0338345 L24.1133517,76.9850011 L24.1133517,76.9850011 L24.0645184,76.9101345 L24.0645184,76.9101345 C18.0002684,70.8168011 14.2470225,62.4209678 14.2470225,53.1634678 C14.2470225,43.9059678 18.0000267,35.5106345 24.0611934,29.4201345 L24.1132767,29.3420095 L24.1132767,29.3420095 L24.1914017,29.2899261 L24.1914017,29.2899261 C29.9562517,23.5541495 37.7811597,19.8973027 46.4433604,19.5174133 L46.974735,19.4982595 L46.974735,9.19575947 L36.372235,9.19575947 C35.8416684,9.19575947 35.411985,8.76607614 35.411985,8.23550947 C35.411985,7.74284042 35.7824486,7.33715751 36.2602,7.28171643 L36.372235,7.27525947 Z M48.8948767,21.4215595 L48.8948767,28.0914761 C48.8948767,28.6220428 48.4651934,29.0517261 47.9346267,29.0517261 C47.4419577,29.0517261 47.0362747,28.6812626 46.9808337,28.2035112 L46.9743767,28.0914761 L46.9743767,21.4215595 C39.1148658,21.6579725 31.9694322,24.7561176 26.5396433,29.7148954 L26.18021,30.0482261 L30.88721,34.7552261 C31.26156,35.1328095 31.26156,35.7415428 30.88721,36.1158928 C30.6984017,36.3046928 30.4542684,36.3990928 30.2068684,36.3990928 C30.0007017,36.3990928 29.7967978,36.3335372 29.6252974,36.2024261 L29.5265267,36.1158928 L24.8195267,31.4088928 C19.7782224,36.7616102 16.5751925,43.8531863 16.2128002,51.6801813 L16.19286,52.2030595 L22.8627767,52.2030595 C23.3933434,52.2030595 23.8230267,52.6327095 23.8230267,53.1633095 C23.8230267,53.6559785 23.4525632,54.0616614 22.9748118,54.1171025 L22.8627767,54.1235595 L16.19286,54.1235595 C16.4292731,61.9830703 19.5274182,69.1285039 24.486196,74.5582929 L24.8195267,74.9177261 L29.5265267,70.2107261 C29.90411,69.8363761 30.5128434,69.8363761 30.8871934,70.2107261 C31.2327472,70.5592646 31.2593283,71.1047593 30.9669366,71.4810556 L30.8871934,71.5713928 L26.1801934,76.2783928 C31.5329108,81.3196939 38.6244868,84.5227237 46.4514819,84.885116 L46.97436,84.9050561 L46.97436,78.2351428 C46.97436,77.7045761 47.4040434,77.2748928 47.93461,77.2748928 C48.4272791,77.2748928 48.832962,77.6453563 48.8884031,78.1231077 L48.89486,78.2351428 L48.89486,84.9050561 C56.7543709,84.6686431 63.8998045,81.570498 69.3295935,76.6117233 L69.6890267,76.2783928 L64.9820267,71.5713928 C64.6076767,71.1938095 64.6076767,70.5850761 64.9820267,70.2107261 C65.3305652,69.8651723 65.8760598,69.8385912 66.2523561,70.1309829 L66.3426934,70.2107261 L71.0497267,74.9177261 C76.091031,69.5650087 79.2940609,62.4734327 79.6564532,54.6464376 L79.6763934,54.1235595 L73.0097267,54.1235595 C72.47916,54.1235595 72.0494767,53.6939095 72.0494767,53.1633095 C72.0494767,52.6706404 72.4199402,52.2649575 72.8976916,52.2095164 L73.0097267,52.2030595 L79.6763934,52.2030595 C79.4399803,44.3435486 76.3418352,37.198115 71.3830574,31.768326 L71.0497267,31.4088928 L66.3427267,36.1158928 C66.1539184,36.3046928 65.9097767,36.3990928 65.662385,36.3990928 C65.414985,36.3990928 65.1708434,36.3046928 64.9820434,36.1158928 C64.6364895,35.7673543 64.6099085,35.2218597 64.9023002,34.8455634 L64.9820434,34.7552261 L69.6890434,30.0482261 C64.336326,25.0069218 57.2447499,21.8038919 49.4177549,21.4414996 L48.8948767,21.4215595 Z M52.5785312,50.1286439 L63.7168365,44.6961294 C64.1937066,44.4635443 64.7682642,44.6613804 65.0008493,45.1382505 C65.2168212,45.5810585 65.0616905,46.1080844 64.6565941,46.367347 L64.5587282,46.4222634 L53.423419,51.8533166 C54.1239334,54.3366419 52.9820014,57.0448987 50.5843237,58.2179495 C47.8897392,59.5321862 44.6324652,58.4082486 43.3196167,55.7165102 C42.00538,53.0219257 43.1278928,49.7617306 45.8196312,48.4488821 C48.146037,47.3142181 50.885655,48.004319 52.436656,49.9432299 L52.5785312,50.1286439 L63.7168365,44.6961294 L52.5785312,50.1286439 Z M51.3612003,51.7907519 C50.5121484,50.0499376 48.4054447,49.3245413 46.6646304,50.1735932 C44.9267372,51.0212203 44.2013409,53.1279241 45.0503928,54.8687383 C45.8994446,56.6095526 48.0018026,57.3334525 49.7426169,56.4844007 C51.4834311,55.6353488 52.2102521,53.5315661 51.3612003,51.7907519 Z" id="Shape" fill="#283577"></path>
    </g>
</svg>