<?xml version="1.0" encoding="UTF-8"?>
<svg width="96px" height="95px" viewBox="0 0 96 95" version="1.1" xmlns="http://www.w3.org/2000/svg" xmlns:xlink="http://www.w3.org/1999/xlink">
    <!-- Generator: Sketch 58 (84663) - https://sketch.com -->
    <title>feature_battery</title>
    <desc>Created with Sketch.</desc>
    <g id="Page-1" stroke="none" stroke-width="1" fill="none" fill-rule="evenodd">
        <path d="M47.9987645,7.06329614 C70.0537645,7.06329614 87.9987645,25.0082961 87.9987645,47.0632961 C87.9987645,59.0864346 82.6591317,69.8824212 74.2320373,77.2218028 L73.8347645,77.5632961 L80.0886645,77.5632961 C80.6433545,77.5632961 81.0886645,78.0086061 81.0886645,78.5632961 C81.0886645,79.0783654 80.7046983,79.4991224 80.2057301,79.5566026 L80.0886645,79.5632961 L71.2722645,79.5632961 C64.7142645,84.2780961 56.6789645,87.0632961 47.9992645,87.0632961 C25.9442645,87.0632961 7.99926454,69.1182961 7.99926454,47.0632961 C7.99926454,35.0401577 13.3388974,24.2441711 21.7659918,16.9047895 L22.1632645,16.5632961 L15.9093645,16.5632961 C15.3546745,16.5632961 14.9093645,16.1179861 14.9093645,15.5632961 C14.9093645,15.0482269 15.2933308,14.6274699 15.792299,14.5699897 L15.9093645,14.5632961 L24.7257645,14.5632961 C31.2837645,9.84849614 39.3190645,7.06329614 47.9987645,7.06329614 Z M47.9987645,9.06329614 C39.9451931,9.06329614 32.4760646,11.5907997 26.321725,15.8828087 L25.8737645,16.1999961 L25.8737645,24.5319961 C25.8737645,25.0866861 25.4284545,25.5319961 24.8737645,25.5319961 C24.3586953,25.5319961 23.9379383,25.1480299 23.8804581,24.6490617 L23.8737645,24.5319961 L23.8737645,17.7272961 C15.4049645,24.7002961 9.99876454,35.2622961 9.99876454,47.0632961 C9.99876454,68.0162961 27.0457645,85.0632961 47.9987645,85.0632961 C56.052336,85.0632961 63.5214645,82.5357926 69.6758041,78.2437835 L70.1237645,77.9265961 L70.1237645,69.5945961 C70.1237645,69.0399061 70.5690745,68.5945961 71.1237645,68.5945961 C71.6388338,68.5945961 72.0595908,68.9785624 72.117071,69.4775306 L72.1237645,69.5945961 L72.1237645,76.3992961 C80.5925645,69.4262961 85.9987645,58.8642961 85.9987645,47.0632961 C85.9987645,26.1102961 68.9517645,9.06329614 47.9987645,9.06329614 Z M32.051416,36.0129848 L63.7610049,36.0129848 C65.2848102,36.0129848 66.5503085,37.2240615 66.6387576,38.7274727 L66.6436948,38.8956747 L66.6436948,41.2979163 L70.4872814,41.2979163 C70.9804653,41.2979163 71.3862644,41.6684756 71.4417195,42.1466695 L71.448178,42.258813 L71.448178,51.8677793 C71.448178,52.3609633 71.0776187,52.7667624 70.5994248,52.8222174 L70.4872814,52.8286759 L66.6436948,52.8286759 L66.6436948,55.2309175 C66.6436948,56.7547229 65.4326181,58.0202211 63.9292069,58.1086703 L63.7610049,58.1136074 L32.051416,58.1136074 C30.5276107,58.1136074 29.2621124,56.9025308 29.1736633,55.3991196 L29.1687261,55.2309175 L29.1687261,38.8956747 C29.1687261,37.3718694 30.3798027,36.1063711 31.8832139,36.017922 L32.051416,36.0129848 L63.7610049,36.0129848 L32.051416,36.0129848 Z M49.8731659,37.9347781 L32.0514256,37.9345379 C31.5408158,37.9345379 31.1499531,38.2889408 31.0967207,38.779829 L31.090529,38.8954345 L31.090529,55.2306773 C31.090529,55.7412871 31.4449319,56.1321498 31.9358201,56.1853822 L32.0514256,56.1915739 L43.5672913,56.1915739 L49.3927271,48.0239525 L44.5430818,48.0239525 C44.1789981,48.0258743 43.8449184,47.8231636 43.6797643,47.50036 C43.5329649,47.2117493 43.5418602,46.8712379 43.6972314,46.5935062 L43.7623437,46.4925235 L49.8731659,37.9347781 Z M63.7610049,37.9347781 L52.2451392,37.9347781 L46.4048239,46.1023034 L51.2693631,46.1023034 C51.6278256,46.1041772 51.9562408,46.3049757 52.1195164,46.6240222 C52.2640262,46.9032048 52.260538,47.2312074 52.1191068,47.5049826 L52.0500772,47.6186944 L45.9243611,56.1918142 L63.7610049,56.1918142 C64.2716147,56.1918142 64.6624774,55.8374112 64.7157098,55.346523 L64.7219015,55.2309175 L64.7219015,38.8956747 C64.7219015,38.3850649 64.3674986,37.9942023 63.8766104,37.9409699 L63.7610049,37.9347781 Z M69.5263847,43.2197096 L66.6436948,43.2197096 L66.6436948,50.9068827 L69.5263847,50.9068827 L69.5263847,43.2197096 Z" id="Shape" fill="#283577"></path>
    </g>
</svg>